<?xml version="1.0" encoding="UTF-8" standalone="no"?>
<svg
   xmlns:dc="http://purl.org/dc/elements/1.1/"
   xmlns:cc="http://creativecommons.org/ns#"
   xmlns:svg="http://www.w3.org/2000/svg"
   xmlns="http://www.w3.org/2000/svg"
   version="1.1"
   width="570"
   height="570"
   id="diaspora-logo">
  <defs id="defs4" />
  <g
     transform="translate(-87.047239,-241.1811)"
     id="layer1">
    <path
       d="m 372.66481,241.20047 c -17.08042,0.16982 -35.45815,1.45664 -47.99538,3.65297 -60.79504,10.65037 -113.6264,38.6994 -157.01994,83.3072 -39.44971,40.55377 -65.4817,90.62498 -75.583033,145.34311 -7.89314,42.75654 -6.50552,82.23987 4.36616,124.55671 14.935993,58.13645 50.777883,113.31189 98.157683,151.09735 24.39353,19.45392 58.42408,37.89142 88.03465,47.68262 21.62131,7.1495 41.87501,11.3079 68.37079,14.03 9.23715,0.949 49.74169,-0.4294 60.86746,-2.0689 82.40771,-12.144 153.18827,-56.95528 199.22611,-126.14076 16.57068,-24.90234 31.40679,-58.88684 38.71326,-88.73819 6.07836,-24.83363 7.23299,-35.78567 7.24459,-67.59618 0.012,-33.19542 -1.23786,-43.8446 -8.37656,-71.73406 C 619.20637,339.48166 519.41288,254.07622 400.44649,242.17029 c -7.74308,-0.77492 -17.53342,-1.07172 -27.78168,-0.96982 z"
       id="path3017"
       style="fill:#000000;fill-opacity:1;fill-rule:nonzero;stroke:none" />
    <path
       d="m 372.64314,251.19978 c -16.48111,0.16386 -34.214,1.40553 -46.31133,3.5248 -58.66188,10.27667 -109.63951,37.34152 -151.51047,80.38414 -38.06551,39.13083 -63.1841,87.44515 -72.93099,140.24335 -7.616194,41.25631 -6.277265,79.35426 4.21296,120.1863 14.41192,56.09657 48.9962,109.33603 94.71355,145.79569 23.53762,18.77134 56.37411,36.56187 84.94571,46.00955 20.86267,6.89861 40.40572,10.91112 65.97182,13.53773 8.91304,0.91569 47.99637,-0.41432 58.73176,-1.99635 79.51621,-11.71787 147.81324,-54.95683 192.23572,-121.71475 15.98925,-24.02857 30.3048,-56.82063 37.3549,-85.62456 5.86508,-23.96228 6.9792,-34.53004 6.99039,-65.22439 0.0116,-32.03067 -1.19442,-42.30619 -8.08264,-69.21707 -28.4304,-111.07171 -124.72236,-193.48047 -239.51449,-204.96865 -7.4714,-0.74773 -16.91822,-1.03411 -26.80689,-0.93579 z"
       id="rect3012"
       style="fill:#ffffff;fill-opacity:1;fill-rule:nonzero;stroke:none" />
    <path
       d="m 353.27072,780.22066 c -23.63191,-2.42901 -41.71569,-6.14073 -61,-12.52032 -26.41005,-8.73691 -56.74309,-25.17081 -78.5,-42.5299 -42.25863,-33.71667 -74.24093,-82.96915 -87.56253,-134.84533 -9.6966,-37.76019 -10.9297,-72.99664 -3.8897,-111.14908 9.0095,-48.82599 32.252,-93.53459 67.4377,-129.72146 38.70325,-39.80436 85.79066,-64.78934 140.01453,-74.29285 17.89137,-3.13572 49.17648,-4.24881 67.59292,-2.40489 106.10763,10.62389 195.14781,86.85292 221.42733,189.56828 6.3671,24.88627 7.47411,34.37908 7.46341,64 -0.0103,28.38508 -1.05827,38.13752 -6.47963,60.29707 -6.51673,26.63684 -19.74379,56.98213 -34.52339,79.20293 -41.06174,61.73543 -104.1766,101.71684 -177.67709,112.55319 -9.92321,1.463 -46.06481,2.68918 -54.30355,1.84236 z m -40.33889,-97.23214 c 1.28639,-1.56013 14.93889,-20.22445 30.33889,-41.47626 15.4,-21.25182 28.51223,-38.65035 29.13829,-38.66341 0.62606,-0.0131 14.72991,18.68354 31.34188,41.54799 21.50396,29.59768 30.62609,41.4096 31.6704,41.00886 0.80674,-0.30957 16.10061,-11.20787 33.98638,-24.21843 23.38209,-17.00873 32.39961,-24.10607 32.09261,-25.25887 -0.23483,-0.88181 -13.7892,-20.01164 -30.12081,-42.51074 -16.55123,-22.80165 -29.31357,-41.28773 -28.83467,-41.76663 0.47255,-0.47255 22.42919,-7.86489 48.79255,-16.42743 26.36335,-8.56254 48.29497,-15.91416 48.73693,-16.33694 0.99377,-0.95063 -24.26354,-78.84098 -25.73896,-79.37568 -0.58553,-0.2122 -22.8896,6.72158 -49.5646,15.40842 -26.675,8.68683 -48.83336,15.46345 -49.24081,15.05917 -0.40744,-0.40429 -0.85744,-23.89171 -1,-52.19427 l -0.25919,-51.45919 -41.43403,-0.26124 c -32.48356,-0.20482 -41.60699,0.0112 -42.23469,1 -0.44036,0.69368 -0.80755,24.07218 -0.81597,51.95222 -0.008,27.88004 -0.35281,50.88529 -0.76531,51.12277 -0.4125,0.23748 -22.575,-6.67291 -49.25,-15.35642 -36.88733,-12.00793 -48.77747,-15.50916 -49.65883,-14.62277 -1.69844,1.70812 -25.63583,76.45517 -25.0082,78.09076 0.30492,0.79461 13.28177,5.5107 30.34985,11.02985 47.04374,15.21211 66.67569,21.96544 66.99142,23.04483 0.16087,0.55 -12.78914,19 -28.7778,41 -15.98867,22 -29.49308,40.78014 -30.0098,41.73364 -0.70842,1.30723 -0.37959,2.21404 1.33693,3.68683 3.73432,3.20409 64.22013,47.03724 64.93754,47.05925 0.3636,0.0111 1.7136,-1.25619 3,-2.81631 z"
       id="path2998"
       style="fill:#2f3537" />
  </g>
</svg>
