<?xml version="1.0" encoding="UTF-8" standalone="no"?>
<svg xmlns="http://www.w3.org/2000/svg" height="4.2e3" width="4.2e3">
<circle d="M 500,250 C 500,388.07119 388.07119,500 250,500 111.92881,500 0,388.07119 0,250 0,111.92881 111.92881,0 250,0 388.07119,0 500,111.92881 500,250 z" cx="250" cy="250" transform="matrix(8.4 0 0 8.4 .8 .8)" stroke="#000" r="250" fill="#fff"/>
<circle d="M 490,250 C 490,382.54834 382.54834,490 250,490 117.45166,490 10,382.54834 10,250 10,117.45166 117.45166,10 250,10 382.54834,10 490,117.45166 490,250 z" cx="250" cy="250" transform="matrix(8.4 0 0 8.4 .8 .8)" stroke="#000" r="240"/>
<path fill="#fff" d="m2.08e3 2.78e3 -601 813-594-419 589-865-941-323 224-699 983 320 13.2-1.02e3 3.75-9.16 721 5.14 35.2 1.06e3 949-317 219 709-949 324c-2.76 0.94-3.61 5.14-2.51 8.01l559 827-588 437z" stroke="#000"/>
</svg>
