<?xml version="1.0" encoding="UTF-8" standalone="no"?>
<svg id="diaspora-logo" xmlns="http://www.w3.org/2000/svg" height="570" width="570" version="1.1" xmlns:cc="http://creativecommons.org/ns#" xmlns:dc="http://purl.org/dc/elements/1.1/">
<g transform="translate(-87 -241)">
<path d="m373 241c-17.1 0.17-35.5 1.46-48 3.65-60.8 10.7-114 38.7-157 83.3-39.4 40.6-65.5 90.6-75.6 145-7.89 42.8-6.51 82.2 4.37 125 14.9 58.1 50.8 113 98.2 151 24.4 19.5 58.4 37.9 88 47.7 21.6 7.15 41.9 11.3 68.4 14 9.24 0.949 49.7-0.429 60.9-2.07 82.4-12.1 153-57 199-126 16.6-24.9 31.4-58.9 38.7-88.7 6.08-24.8 7.23-35.8 7.24-67.6 0.012-33.2-1.24-43.8-8.38-71.7-29-115-129-200-248-212-7.74-0.775-17.5-1.07-27.8-0.97z"/>
<path d="m373 251c-16.5 0.164-34.2 1.41-46.3 3.52-58.7 10.3-110 37.3-152 80.4-38.1 39.1-63.2 87.4-72.9 140-7.62 41.3-6.28 79.4 4.21 120 14.4 56.1 49 109 94.7 146 23.5 18.8 56.4 36.6 84.9 46 20.9 6.9 40.4 10.9 66 13.5 8.91 0.916 48-0.414 58.7-2 79.5-11.7 148-55 192-122 16-24 30.3-56.8 37.4-85.6 5.87-24 6.98-34.5 6.99-65.2 0.0116-32-1.19-42.3-8.08-69.2-28.4-111-125-193-240-205-7.47-0.748-16.9-1.03-26.8-0.936z" fill="#fff"/>
<path d="m353 780c-23.6-2.43-41.7-6.14-61-12.5-26.4-8.74-56.7-25.2-78.5-42.5-42.3-33.7-74.2-83-87.6-135-9.7-37.8-10.9-73-3.89-111 9.01-48.8 32.3-93.5 67.4-130 38.7-39.8 85.8-64.8 140-74.3 17.9-3.14 49.2-4.25 67.6-2.4 106 10.6 195 86.9 221 190 6.37 24.9 7.47 34.4 7.46 64-0.0103 28.4-1.06 38.1-6.48 60.3-6.52 26.6-19.7 57-34.5 79.2-41.1 61.7-104 102-178 113-9.92 1.46-46.1 2.69-54.3 1.84zm-40.3-97.2c1.29-1.56 14.9-20.2 30.3-41.5s28.5-38.7 29.1-38.7c0.626-0.0131 14.7 18.7 31.3 41.5 21.5 29.6 30.6 41.4 31.7 41 0.807-0.31 16.1-11.2 34-24.2 23.4-17 32.4-24.1 32.1-25.3-0.235-0.882-13.8-20-30.1-42.5-16.6-22.8-29.3-41.3-28.8-41.8 0.473-0.473 22.4-7.86 48.8-16.4 26.4-8.56 48.3-15.9 48.7-16.3 0.994-0.951-24.3-78.8-25.7-79.4-0.586-0.212-22.9 6.72-49.6 15.4-26.7 8.69-48.8 15.5-49.2 15.1-0.407-0.404-0.857-23.9-1-52.2l-0.259-51.5-41.4-0.261c-32.5-0.205-41.6 0.0112-42.2 1-0.44 0.694-0.808 24.1-0.816 52s-0.353 50.9-0.765 51.1c-0.412 0.237-22.6-6.67-49.2-15.4-36.9-12-48.8-15.5-49.7-14.6-1.7 1.71-25.6 76.5-25 78.1 0.305 0.795 13.3 5.51 30.3 11 47 15.2 66.7 22 67 23 0.161 0.55-12.8 19-28.8 41s-29.5 40.8-30 41.7c-0.708 1.31-0.38 2.21 1.34 3.69 3.73 3.2 64.2 47 64.9 47.1 0.364 0.0111 1.71-1.26 3-2.82z"/>
</g>
</svg>
