<?xml version="1.0" encoding="UTF-8" standalone="no"?>
<svg
   xmlns:dc="http://purl.org/dc/elements/1.1/"
   xmlns:cc="http://creativecommons.org/ns#"
   xmlns:rdf="http://www.w3.org/1999/02/22-rdf-syntax-ns#"
   xmlns:svg="http://www.w3.org/2000/svg"
   xmlns="http://www.w3.org/2000/svg"
   xmlns:xlink="http://www.w3.org/1999/xlink"
   xmlns:sodipodi="http://sodipodi.sourceforge.net/DTD/sodipodi-0.dtd"
   xmlns:inkscape="http://www.inkscape.org/namespaces/inkscape"
   width="50.799999mm"
   height="50.799999mm"
   viewBox="0 0 180 180"
   id="svg2"
   version="1.1"
   inkscape:version="0.48.4 r9939"
   sodipodi:docname="fsfw-dresden-logo2-nofont.svg">
  <sodipodi:namedview
     pagecolor="#ffffff"
     bordercolor="#666666"
     borderopacity="1"
     objecttolerance="10"
     gridtolerance="10"
     guidetolerance="10"
     inkscape:pageopacity="0"
     inkscape:pageshadow="2"
     inkscape:window-width="1364"
     inkscape:window-height="720"
     id="namedview3097"
     showgrid="false"
     inkscape:zoom="1.3111111"
     inkscape:cx="89.999998"
     inkscape:cy="89.999998"
     inkscape:window-x="0"
     inkscape:window-y="0"
     inkscape:window-maximized="1"
     inkscape:current-layer="svg2" />
  <defs
     id="defs4" />
  <metadata
     id="metadata7">
    <rdf:RDF>
      <cc:Work
         rdf:about="">
        <dc:format>image/svg+xml</dc:format>
        <dc:type
           rdf:resource="http://purl.org/dc/dcmitype/StillImage" />
        <dc:title />
      </cc:Work>
    </rdf:RDF>
  </metadata>
  <g
     id="g5426-6-7"
     transform="translate(-270.69611,-581.36565)">
    <g
       id="g5892-2-6-5"
       transform="translate(65.962793,46.887011)">
      <path
         inkscape:connector-curvature="0"
         style="fill:none;stroke:#000000;stroke-width:2.5;stroke-linecap:round;stroke-linejoin:miter;stroke-miterlimit:4;stroke-opacity:1;stroke-dasharray:none"
         d="m 214.35635,593.74488 c 0,0 62.02172,1.15107 73.74858,16.76021 1.23222,1.70616 6.4913,1.96986 6.4913,1.96986"
         id="path5894-4-0-6" />
      <path
         inkscape:connector-curvature="0"
         id="path5896-36-6-6"
         d="m 291.20314,611.54774 c -0.71771,-20.57437 -75.17213,-24.26226 -75.17213,-24.26226"
         style="fill:none;stroke:#000000;stroke-width:1.5;stroke-linecap:round;stroke-linejoin:miter;stroke-miterlimit:4;stroke-opacity:1;stroke-dasharray:none" />
      <path
         inkscape:connector-curvature="0"
         style="fill:none;stroke:#000000;stroke-width:1.5;stroke-linecap:round;stroke-linejoin:miter;stroke-miterlimit:4;stroke-opacity:1;stroke-dasharray:none"
         d="m 293.86867,611.92689 c -0.23924,-27.03377 -75.92376,-30.62233 -75.92376,-30.62233"
         id="path5898-2-4-1" />
    </g>
    <use
       height="180"
       width="180"
       transform="matrix(-1,0,0,1,721.39224,2.8560018e-7)"
       id="use5992-1-4-0"
       xlink:href="#g5892-2-6-5"
       y="0"
       x="0" />
    <rect
       style="fill:#6bba00;fill-opacity:1;stroke:none"
       id="rect5118-6-5-0-8-4"
       width="5"
       height="5"
       x="358.22089"
       y="644.16772" />
    <rect
       style="fill:#2cabb7;fill-opacity:1;stroke:none"
       id="rect5118-6-0-6-9"
       width="7.5"
       height="7.5"
       x="363.96158"
       y="634.2959" />
    <rect
       style="fill:#000000;fill-opacity:1;stroke:none"
       id="rect5118-6-5-6-5-7"
       width="5"
       height="5"
       x="353.56042"
       y="636.01196" />
    <rect
       style="fill:#6bba00;fill-opacity:1;stroke:none"
       id="rect5118-6-1-2-6"
       width="7.5"
       height="7.5"
       x="338.79501"
       y="626.60608" />
    <rect
       style="fill:#2cabb7;fill-opacity:1;stroke:none"
       id="rect5118-0-4-4"
       width="10"
       height="10"
       x="350.36136"
       y="621.16168" />
    <rect
       style="fill:#000000;fill-opacity:1;stroke:none"
       id="rect5118-6-5-8-3-1"
       width="5"
       height="5"
       x="363.58044"
       y="625.99188" />
    <rect
       style="fill:#5a40c6;fill-opacity:1;stroke:none"
       id="rect5118-6-5-4-1-8"
       width="5"
       height="5"
       x="375.93069"
       y="630.88538" />
    <rect
       style="fill:#000000;fill-opacity:1;stroke:none"
       id="rect5118-6-9-8-4"
       width="7.5"
       height="7.5"
       x="371.65137"
       y="620.08142" />
    <rect
       style="fill:#2cabb7;fill-opacity:1;stroke:none"
       id="rect5118-6-5-2-1-2"
       width="5"
       height="5"
       x="385.71771"
       y="627.85608" />
    <rect
       style="fill:#000000;fill-opacity:1;stroke:none"
       id="rect5118-04-7-7"
       width="10"
       height="10"
       x="294.90167"
       y="610.67554" />
    <rect
       style="fill:#2cabb7;fill-opacity:1;stroke:none"
       id="rect5118-6-5-66-8-2"
       width="5"
       height="5"
       x="310.91705"
       y="620.86536" />
    <rect
       style="fill:#000000;fill-opacity:1;stroke:none"
       id="rect5118-6-5-9-7-1"
       width="5"
       height="5"
       x="330.72406"
       y="617.37" />
    <rect
       style="fill:#000000;fill-opacity:1;stroke:none"
       id="rect5118-6-3-5-4"
       width="7.5"
       height="7.5"
       x="319.9201"
       y="604.23578" />
    <rect
       style="fill:#2cabb7;fill-opacity:1;stroke:none"
       id="rect5118-6-55-9-1"
       width="7.5"
       height="7.5"
       x="343.22247"
       y="604.00275" />
    <rect
       style="fill:#000000;fill-opacity:1;stroke:none"
       id="rect5118-6-5-86-5-6"
       width="5"
       height="5"
       x="361.01715"
       y="608.74811" />
    <rect
       style="fill:#000000;fill-opacity:1;stroke:none"
       id="rect5118-8-1-5"
       width="10"
       height="10"
       x="399.06329"
       y="608.8114" />
    <rect
       style="fill:#6bba00;fill-opacity:1;stroke:none"
       id="rect5118-6-5-1-5-8"
       width="5"
       height="5"
       x="375.93069"
       y="611.31134" />
    <rect
       style="fill:#000000;fill-opacity:1;stroke:none"
       id="rect5118-6-5-84-7-5"
       width="5"
       height="5"
       x="410.18518"
       y="622.41132" />
    <rect
       style="fill:#5a40c6;fill-opacity:1;stroke:none"
       id="rect5118-6-5-62-2-9"
       width="5"
       height="5"
       x="421.37036"
       y="612.70947" />
    <rect
       style="fill:#5a40c6;fill-opacity:1;stroke:none"
       id="rect5118-6-8-6-4"
       width="7.5"
       height="7.5"
       x="339.72711"
       y="616.58606" />
    <rect
       style="fill:#2cabb7;fill-opacity:1;stroke:none"
       id="rect5118-6-80-0-7"
       width="7.5"
       height="7.5"
       x="387.26398"
       y="608.43018" />
  </g>
  <g
     style="font-size:60px;font-style:normal;font-variant:normal;font-weight:600;font-stretch:normal;text-align:start;line-height:89.99999762%;letter-spacing:0px;word-spacing:0px;writing-mode:lr-tb;text-anchor:start;fill:#000000;fill-opacity:1;stroke:none;font-family:Titillium;-inkscape-font-specification:Titillium Semi-Bold"
     id="text5950-5-5-8"
     transform="translate(-238.07693,-843.23096)">
    <path
       inkscape:connector-curvature="0"
       d="m 255.90725,967.90002 6.66,0 0,-15.6 15.66,0 0,-5.82 -15.66,0 0,-13.86 18.84,0 0,-5.82 -25.5,0 0,41.1 z"
       style="font-size:60px;font-style:normal;font-variant:normal;font-weight:600;font-stretch:normal;font-family:Titillium;-inkscape-font-specification:Titillium Semi-Bold"
       id="path3561" />
    <path
       inkscape:connector-curvature="0"
       d="m 311.91069,927.52002 c 0,0 -7.8,-1.44 -13.02,-1.44 -8.22,0 -13.68,3.42 -13.68,11.7 0,7.14 3.84,9.84 12.72,12.12 6.3,1.5 8.16,2.7 8.16,6.18 0,4.32 -2.34,6.6 -7.44,6.6 -4.26,0 -12.36,-1.08 -12.36,-1.08 l -0.66,5.34 c 0,0 8.1,1.62 13.44,1.62 8.1,0 13.74,-3.9 13.74,-12.9 0,-7.02 -3.12,-9.3 -11.76,-11.7 -7.02,-1.92 -9.18,-2.82 -9.18,-6.66 0,-3.54 2.58,-5.34 7.62,-5.34 3.48,0 11.88,0.96 11.88,0.96 l 0.54,-5.4 z"
       style="font-size:60px;font-style:normal;font-variant:normal;font-weight:600;font-stretch:normal;font-family:Titillium;-inkscape-font-specification:Titillium Semi-Bold"
       id="path3563" />
    <path
       inkscape:connector-curvature="0"
       d="m 320.00881,967.90002 6.66,0 0,-15.6 15.66,0 0,-5.82 -15.66,0 0,-13.86 18.84,0 0,-5.82 -25.5,0 0,41.1 z"
       style="font-size:60px;font-style:normal;font-variant:normal;font-weight:600;font-stretch:normal;font-family:Titillium;-inkscape-font-specification:Titillium Semi-Bold"
       id="path3565" />
    <path
       inkscape:connector-curvature="0"
       d="m 348.46663,926.80002 8.04,41.1 10.8,0 7.02,-32.94 7.08,32.94 10.74,0 8.1,-41.1 -7.02,0 -5.88,35.34 -1.32,0 -7.8,-35.22 -7.8,0 -7.8,35.22 -1.26,0 -5.88,-35.34 -7.02,0 z"
       style="font-size:60px;font-style:normal;font-variant:normal;font-weight:600;font-stretch:normal;font-family:Titillium;-inkscape-font-specification:Titillium Semi-Bold"
       id="path3567" />
  </g>
  <path
     style="fill:none;stroke:#000000;stroke-width:2.5;stroke-linecap:butt;stroke-linejoin:miter;stroke-miterlimit:4;stroke-opacity:1;stroke-dasharray:none"
     d="m 165.8,131.50851 -150,0 0,0 0,0"
     id="path3185"
     inkscape:connector-curvature="0"
     sodipodi:nodetypes="cccc" />
  <g
     style="font-size:37.62187195px;font-style:normal;font-variant:normal;font-weight:bold;font-stretch:normal;line-height:125%;letter-spacing:0px;word-spacing:0px;fill:#000000;fill-opacity:1;stroke:none;font-family:Sixty;-inkscape-font-specification:Sixty Bold"
     id="text3955">
    <path
       d="m 38.590622,151.2022 c -2.4e-5,2.26565 -0.312315,4.25574 -0.936873,5.97027 -0.612358,1.7023 -1.506366,3.12904 -2.682028,4.28022 -1.163456,1.13895 -2.596319,1.99622 -4.298593,2.57181 -1.690059,0.5756 -3.618913,0.86339 -5.786567,0.86339 l -7.072471,0 0,-26.85702 7.862383,0 c 1.971706,3e-5 3.747477,0.2817 5.327316,0.84503 1.592054,0.56337 2.951436,1.40227 4.078152,2.51669 1.126675,1.10223 1.990067,2.47386 2.590178,4.1149 0.612311,1.64107 0.918479,3.53931 0.918503,5.69471 m -5.768197,0.14696 c -1.9e-5,-1.49408 -0.153102,-2.77998 -0.459252,-3.85771 -0.293938,-1.08994 -0.728696,-1.99007 -1.304274,-2.7004 -0.563364,-0.71028 -1.261425,-1.23689 -2.094186,-1.57982 -0.820543,-0.34289 -1.763538,-0.51434 -2.828988,-0.51436 l -2.626918,0 0,17.48829 2.094186,0 c 2.40034,0 4.200604,-0.7348 5.400796,-2.20441 1.212406,-1.46959 1.818617,-3.68012 1.818636,-6.63159"
       style="font-family:Droid Sans;-inkscape-font-specification:Droid Sans Bold"
       id="path3017" />
    <path
       d="m 54.462349,143.9644 c 0.146947,2e-5 0.306154,0.006 0.477621,0.0184 0.183687,2e-5 0.35514,0.0123 0.514362,0.0367 0.171439,0.0123 0.324523,0.0306 0.459251,0.0551 0.146945,0.0123 0.257166,0.0306 0.330661,0.0551 l 0,5.25384 c -0.09799,-0.0245 -0.232702,-0.049 -0.404141,-0.0735 -0.171469,-0.0245 -0.355169,-0.0429 -0.551102,-0.0551 -0.183714,-0.0245 -0.367415,-0.0367 -0.551101,-0.0367 -0.183714,-0.0122 -0.336798,-0.0184 -0.459252,-0.0184 -0.722568,1e-5 -1.390012,0.0919 -2.002336,0.27555 -0.600099,0.18371 -1.120583,0.48376 -1.561454,0.90013 -0.428644,0.40416 -0.765428,0.94301 -1.010353,1.61657 -0.232696,0.66133 -0.34904,1.47573 -0.349031,2.44321 l 0,10.45256 -5.602867,0 0,-20.53772 4.243483,0 0.826652,3.08617 0.275551,0 c 0.293912,-0.52659 0.612326,-1.00421 0.955243,-1.43286 0.342898,-0.42862 0.722545,-0.7899 1.138943,-1.08384 0.428624,-0.30614 0.906245,-0.53883 1.432865,-0.69806 0.538842,-0.17143 1.151177,-0.25716 1.837005,-0.25718"
       style="font-family:Droid Sans;-inkscape-font-specification:Droid Sans Bold"
       id="path3019" />
    <path
       d="m 68.368482,147.9507 c -0.991993,2e-5 -1.818644,0.34905 -2.479957,1.0471 -0.649083,0.69807 -1.022607,1.79415 -1.120573,3.28824 l 7.145951,0 c -0.01226,-0.62457 -0.09186,-1.20017 -0.238811,-1.72679 -0.146975,-0.52659 -0.367415,-0.97972 -0.661322,-1.35938 -0.293934,-0.39188 -0.661335,-0.69805 -1.102203,-0.91851 -0.440894,-0.22042 -0.955255,-0.33064 -1.543085,-0.33066 m 0.716433,17.30459 c -1.469615,0 -2.822875,-0.21431 -4.059783,-0.64295 -1.236923,-0.42863 -2.302385,-1.07158 -3.196389,-1.92885 -0.894013,-0.86952 -1.592075,-1.95947 -2.094186,-3.26987 -0.48987,-1.32264 -0.734804,-2.87185 -0.734802,-4.64763 -2e-6,-1.80025 0.226561,-3.37395 0.679692,-4.7211 0.453125,-1.34712 1.083829,-2.46769 1.892115,-3.36172 0.820524,-0.90624 1.800259,-1.58593 2.939209,-2.03908 1.151182,-0.4531 2.424837,-0.67967 3.820971,-0.67969 1.359372,2e-5 2.584041,0.20822 3.674011,0.62458 1.102188,0.40416 2.032936,1.00425 2.792249,1.80027 0.771523,0.79605 1.359365,1.77579 1.763525,2.93921 0.416368,1.1512 0.624562,2.47384 0.624582,3.96793 l 0,2.71877 -12.528378,0 c 0.02449,0.78379 0.146953,1.4941 0.367401,2.13092 0.23268,0.62459 0.551094,1.15732 0.955243,1.5982 0.416379,0.42864 0.91237,0.7593 1.487975,0.99198 0.587831,0.23269 1.255275,0.34904 2.002336,0.34903 0.624569,1e-5 1.21241,-0.0306 1.763525,-0.0918 0.563334,-0.0735 1.108311,-0.17757 1.634935,-0.31229 0.526592,-0.13471 1.047076,-0.30004 1.561454,-0.49599 0.514344,-0.20819 1.040952,-0.447 1.579825,-0.71643 l 0,4.33533 c -0.489886,0.25718 -0.985877,0.47762 -1.487974,0.66132 -0.489885,0.17146 -1.01037,0.31842 -1.561455,0.44088 -0.551117,0.12247 -1.145081,0.2082 -1.781895,0.25718 -0.636842,0.0612 -1.334904,0.0918 -2.094186,0.0918"
       style="font-family:Droid Sans;-inkscape-font-specification:Droid Sans Bold"
       id="path3021" />
    <path
       d="m 95.648011,158.78904 c -1.7e-5,1.07771 -0.195964,2.02071 -0.587842,2.82898 -0.39191,0.80829 -0.949135,1.48186 -1.671675,2.02071 -0.722569,0.53886 -1.598207,0.943 -2.626918,1.21242 -1.028733,0.26943 -2.179922,0.40414 -3.45357,0.40414 -0.673576,0 -1.298158,-0.0245 -1.873746,-0.0735 -0.5756,-0.0367 -1.120578,-0.10409 -1.634934,-0.20207 -0.514366,-0.098 -1.010357,-0.22044 -1.487975,-0.3674 -0.477624,-0.14696 -0.961368,-0.33066 -1.451234,-0.5511 l 0,-4.62925 c 0.514359,0.25718 1.053213,0.48987 1.616565,0.69806 0.575591,0.2082 1.145062,0.3919 1.708415,0.5511 0.563342,0.14697 1.10832,0.26331 1.634935,0.34903 0.538847,0.0857 1.034838,0.1286 1.487974,0.12859 0.502106,1e-5 0.93074,-0.0429 1.285904,-0.12859 0.355144,-0.098 0.642942,-0.22656 0.863392,-0.38577 0.232677,-0.17145 0.398007,-0.3674 0.495992,-0.58784 0.110209,-0.23268 0.165319,-0.47762 0.16533,-0.7348 -1.1e-5,-0.25718 -0.04287,-0.48374 -0.12859,-0.67969 -0.07349,-0.20819 -0.251068,-0.42251 -0.532732,-0.64296 -0.281684,-0.23268 -0.698071,-0.48986 -1.249163,-0.77154 -0.538864,-0.29391 -1.267542,-0.64907 -2.186037,-1.06546 -0.894015,-0.40413 -1.67168,-0.80215 -2.332997,-1.19406 -0.649079,-0.40413 -1.187933,-0.85113 -1.616565,-1.34101 -0.41639,-0.48986 -0.728681,-1.04708 -0.936872,-1.67167 -0.208196,-0.63682 -0.312293,-1.38999 -0.312291,-2.25952 -2e-6,-0.95523 0.183698,-1.788 0.551101,-2.49833 0.367399,-0.72254 0.887883,-1.32262 1.561455,-1.80026 0.673564,-0.47761 1.481846,-0.83276 2.424847,-1.06547 0.955236,-0.24491 2.014575,-0.36738 3.17802,-0.3674 1.224659,2e-5 2.388095,0.14086 3.49031,0.42251 1.102189,0.2817 2.235008,0.70421 3.39846,1.26754 l -1.690045,3.96793 c -0.930763,-0.44087 -1.818648,-0.80214 -2.663658,-1.08383 -0.845034,-0.28166 -1.690055,-0.4225 -2.535067,-0.42252 -0.759305,2e-5 -1.310406,0.13473 -1.653305,0.40414 -0.330669,0.26945 -0.495999,0.63685 -0.495992,1.10221 -7e-6,0.24495 0.04286,0.46539 0.128591,0.66132 0.08572,0.18372 0.257173,0.37966 0.514361,0.58784 0.257173,0.19596 0.61845,0.4164 1.083833,0.66132 0.465366,0.2327 1.071577,0.5205 1.818636,0.8634 0.869504,0.37966 1.653292,0.7593 2.351367,1.13894 0.698048,0.36741 1.298136,0.78992 1.800265,1.26753 0.502099,0.47763 0.88787,1.03486 1.157314,1.67168 0.269411,0.63683 0.404124,1.40838 0.404141,2.31463"
       style="font-family:Droid Sans;-inkscape-font-specification:Droid Sans Bold"
       id="path3023" />
    <path
       d="m 106.0822,165.25529 c -1.05322,0 -2.01459,-0.22656 -2.8841,-0.67969 -0.86952,-0.45312 -1.61657,-1.12057 -2.24114,-2.00233 -0.62459,-0.89401 -1.114456,-2.00233 -1.469608,-3.32498 -0.34291,-1.32264 -0.514363,-2.85348 -0.514361,-4.59252 -2e-6,-1.76351 0.171451,-3.30659 0.514361,-4.62925 0.355152,-1.33487 0.851138,-2.44932 1.487978,-3.34335 0.64907,-0.90624 1.42061,-1.58593 2.31462,-2.03908 0.89401,-0.4531 1.87986,-0.67967 2.95758,-0.67969 0.66131,2e-5 1.26753,0.0796 1.81864,0.23881 0.55109,0.14698 1.04708,0.3613 1.48797,0.64295 0.44087,0.26945 0.83276,0.58787 1.17569,0.95525 0.35514,0.35517 0.66743,0.74706 0.93687,1.17568 l 0.1837,0 c -0.0735,-0.4776 -0.14085,-0.96135 -0.20207,-1.45123 -0.0613,-0.41637 -0.11636,-0.85725 -0.16533,-1.32265 -0.0368,-0.4776 -0.0551,-0.91848 -0.0551,-1.32264 l 0,-6.57648 5.60286,0 0,28.5838 -4.28022,0 -1.08383,-2.66365 -0.23881,0 c -0.2572,0.41639 -0.55112,0.8144 -0.88176,1.19405 -0.33068,0.3674 -0.71645,0.68582 -1.15732,0.95524 -0.42864,0.26943 -0.91851,0.48375 -1.4696,0.64295 -0.53887,0.15921 -1.1512,0.23881 -1.83701,0.23881 m 2.03908,-4.46392 c 0.66131,1e-5 1.22466,-0.11021 1.69004,-0.33066 0.46536,-0.23268 0.83889,-0.57559 1.12058,-1.02872 0.2939,-0.46537 0.50822,-1.04097 0.64295,-1.72679 0.14694,-0.68581 0.22655,-1.48796 0.23881,-2.40647 l 0,-0.60622 c -2e-5,-0.99197 -0.0613,-1.87373 -0.1837,-2.64528 -0.12248,-0.77153 -0.32455,-1.41448 -0.60621,-1.92886 -0.28169,-0.52659 -0.66134,-0.92461 -1.13895,-1.19405 -0.47763,-0.26942 -1.07772,-0.40413 -1.80026,-0.40415 -1.1757,2e-5 -2.03909,0.53275 -2.59018,1.5982 -0.55111,1.05323 -0.82666,2.59019 -0.82665,4.61088 -1e-5,2.02072 0.27554,3.53931 0.82665,4.55578 0.56334,1.00423 1.43898,1.50635 2.62692,1.50634"
       style="font-family:Droid Sans;-inkscape-font-specification:Droid Sans Bold"
       id="path3025" />
    <path
       d="m 131.19407,147.9507 c -0.992,2e-5 -1.81865,0.34905 -2.47996,1.0471 -0.64908,0.69807 -1.02261,1.79415 -1.12057,3.28824 l 7.14595,0 c -0.0123,-0.62457 -0.0919,-1.20017 -0.23881,-1.72679 -0.14698,-0.52659 -0.36742,-0.97972 -0.66133,-1.35938 -0.29393,-0.39188 -0.66133,-0.69805 -1.1022,-0.91851 -0.44089,-0.22042 -0.95525,-0.33064 -1.54308,-0.33066 m 0.71643,17.30459 c -1.46962,0 -2.82288,-0.21431 -4.05978,-0.64295 -1.23693,-0.42863 -2.30239,-1.07158 -3.19639,-1.92885 -0.89402,-0.86952 -1.59208,-1.95947 -2.09419,-3.26987 -0.48987,-1.32264 -0.7348,-2.87185 -0.7348,-4.64763 0,-1.80025 0.22656,-3.37395 0.67969,-4.7211 0.45313,-1.34712 1.08383,-2.46769 1.89212,-3.36172 0.82052,-0.90624 1.80026,-1.58593 2.93921,-2.03908 1.15118,-0.4531 2.42483,-0.67967 3.82097,-0.67969 1.35937,2e-5 2.58404,0.20822 3.67401,0.62458 1.10218,0.40416 2.03293,1.00425 2.79225,1.80027 0.77152,0.79605 1.35936,1.77579 1.76352,2.93921 0.41637,1.1512 0.62456,2.47384 0.62458,3.96793 l 0,2.71877 -12.52837,0 c 0.0245,0.78379 0.14695,1.4941 0.3674,2.13092 0.23268,0.62459 0.55109,1.15732 0.95524,1.5982 0.41638,0.42864 0.91237,0.7593 1.48797,0.99198 0.58783,0.23269 1.25528,0.34904 2.00234,0.34903 0.62457,1e-5 1.21241,-0.0306 1.76353,-0.0918 0.56333,-0.0735 1.10831,-0.17757 1.63493,-0.31229 0.52659,-0.13471 1.04708,-0.30004 1.56145,-0.49599 0.51435,-0.20819 1.04096,-0.447 1.57983,-0.71643 l 0,4.33533 c -0.48989,0.25718 -0.98588,0.47762 -1.48797,0.66132 -0.48989,0.17146 -1.01037,0.31842 -1.56146,0.44088 -0.55112,0.12247 -1.14508,0.2082 -1.78189,0.25718 -0.63685,0.0612 -1.33491,0.0918 -2.09419,0.0918"
       style="font-family:Droid Sans;-inkscape-font-specification:Droid Sans Bold"
       id="path3027" />
    <path
       d="m 162.60686,164.88789 -5.60287,0 0,-11.99564 c -10e-6,-1.48184 -0.22658,-2.59017 -0.67969,-3.32498 -0.4409,-0.74703 -1.1512,-1.12056 -2.13093,-1.12058 -0.73481,2e-5 -1.34715,0.14698 -1.837,0.44089 -0.48988,0.29393 -0.88178,0.72869 -1.17569,1.30427 -0.28168,0.57561 -0.48375,1.28592 -0.60621,2.13093 -0.12247,0.84503 -0.18371,1.81252 -0.1837,2.90246 l 0,9.66265 -5.60287,0 0,-20.53772 4.28023,0 0.75317,2.62692 0.31229,0 c 0.29391,-0.52659 0.64907,-0.97972 1.06546,-1.35938 0.42863,-0.37963 0.894,-0.69192 1.39613,-0.93688 0.5021,-0.24491 1.03483,-0.42249 1.59819,-0.53273 0.56334,-0.12244 1.13893,-0.18368 1.72679,-0.1837 1.00421,2e-5 1.91659,0.14698 2.73714,0.44088 0.82051,0.2817 1.52469,0.7287 2.11255,1.34102 0.58782,0.61235 1.04095,1.39614 1.35939,2.35136 0.31839,0.94302 0.4776,2.07583 0.47762,3.39846 l 0,13.39177"
       style="font-family:Droid Sans;-inkscape-font-specification:Droid Sans Bold"
       id="path3029" />
  </g>
  <rect
     style="fill:none;stroke:#000000;stroke-width:1;stroke-miterlimit:4;stroke-opacity:1;stroke-dasharray:none"
     id="rect3022"
     width="179"
     height="179"
     x="0.5"
     y="0.5" />
</svg>
