<?xml version="1.0" encoding="UTF-8" standalone="yes"?>
<!-- Created with qrencode 3.4.2 (http://fukuchi.org/works/qrencode/index.html.en) -->
<svg width="4.34cm" height="4.34cm" viewBox="0 0 41 41" preserveAspectRatio="none" version="1.1" xmlns="http://www.w3.org/2000/svg">
	<g id="QRcode">
		<rect x="0" y="0" width="41" height="41" fill="#ffffff" />
		<g id="Pattern">
			<rect x="4" y="4" width="7" height="1" fill="#000000" />
			<rect x="15" y="4" width="1" height="1" fill="#000000" />
			<rect x="17" y="4" width="1" height="1" fill="#000000" />
			<rect x="20" y="4" width="2" height="1" fill="#000000" />
			<rect x="23" y="4" width="4" height="1" fill="#000000" />
			<rect x="28" y="4" width="1" height="1" fill="#000000" />
			<rect x="30" y="4" width="7" height="1" fill="#000000" />
			<rect x="4" y="5" width="1" height="1" fill="#000000" />
			<rect x="10" y="5" width="1" height="1" fill="#000000" />
			<rect x="14" y="5" width="2" height="1" fill="#000000" />
			<rect x="18" y="5" width="3" height="1" fill="#000000" />
			<rect x="24" y="5" width="3" height="1" fill="#000000" />
			<rect x="28" y="5" width="1" height="1" fill="#000000" />
			<rect x="30" y="5" width="1" height="1" fill="#000000" />
			<rect x="36" y="5" width="1" height="1" fill="#000000" />
			<rect x="4" y="6" width="1" height="1" fill="#000000" />
			<rect x="6" y="6" width="3" height="1" fill="#000000" />
			<rect x="10" y="6" width="1" height="1" fill="#000000" />
			<rect x="12" y="6" width="5" height="1" fill="#000000" />
			<rect x="19" y="6" width="1" height="1" fill="#000000" />
			<rect x="21" y="6" width="1" height="1" fill="#000000" />
			<rect x="23" y="6" width="1" height="1" fill="#000000" />
			<rect x="25" y="6" width="4" height="1" fill="#000000" />
			<rect x="30" y="6" width="1" height="1" fill="#000000" />
			<rect x="32" y="6" width="3" height="1" fill="#000000" />
			<rect x="36" y="6" width="1" height="1" fill="#000000" />
			<rect x="4" y="7" width="1" height="1" fill="#000000" />
			<rect x="6" y="7" width="3" height="1" fill="#000000" />
			<rect x="10" y="7" width="1" height="1" fill="#000000" />
			<rect x="12" y="7" width="2" height="1" fill="#000000" />
			<rect x="16" y="7" width="1" height="1" fill="#000000" />
			<rect x="18" y="7" width="2" height="1" fill="#000000" />
			<rect x="25" y="7" width="1" height="1" fill="#000000" />
			<rect x="27" y="7" width="2" height="1" fill="#000000" />
			<rect x="30" y="7" width="1" height="1" fill="#000000" />
			<rect x="32" y="7" width="3" height="1" fill="#000000" />
			<rect x="36" y="7" width="1" height="1" fill="#000000" />
			<rect x="4" y="8" width="1" height="1" fill="#000000" />
			<rect x="6" y="8" width="3" height="1" fill="#000000" />
			<rect x="10" y="8" width="1" height="1" fill="#000000" />
			<rect x="13" y="8" width="1" height="1" fill="#000000" />
			<rect x="19" y="8" width="1" height="1" fill="#000000" />
			<rect x="23" y="8" width="1" height="1" fill="#000000" />
			<rect x="26" y="8" width="2" height="1" fill="#000000" />
			<rect x="30" y="8" width="1" height="1" fill="#000000" />
			<rect x="32" y="8" width="3" height="1" fill="#000000" />
			<rect x="36" y="8" width="1" height="1" fill="#000000" />
			<rect x="4" y="9" width="1" height="1" fill="#000000" />
			<rect x="10" y="9" width="1" height="1" fill="#000000" />
			<rect x="13" y="9" width="1" height="1" fill="#000000" />
			<rect x="16" y="9" width="1" height="1" fill="#000000" />
			<rect x="18" y="9" width="2" height="1" fill="#000000" />
			<rect x="21" y="9" width="1" height="1" fill="#000000" />
			<rect x="23" y="9" width="3" height="1" fill="#000000" />
			<rect x="28" y="9" width="1" height="1" fill="#000000" />
			<rect x="30" y="9" width="1" height="1" fill="#000000" />
			<rect x="36" y="9" width="1" height="1" fill="#000000" />
			<rect x="4" y="10" width="7" height="1" fill="#000000" />
			<rect x="12" y="10" width="1" height="1" fill="#000000" />
			<rect x="14" y="10" width="1" height="1" fill="#000000" />
			<rect x="16" y="10" width="1" height="1" fill="#000000" />
			<rect x="18" y="10" width="1" height="1" fill="#000000" />
			<rect x="20" y="10" width="1" height="1" fill="#000000" />
			<rect x="22" y="10" width="1" height="1" fill="#000000" />
			<rect x="24" y="10" width="1" height="1" fill="#000000" />
			<rect x="26" y="10" width="1" height="1" fill="#000000" />
			<rect x="28" y="10" width="1" height="1" fill="#000000" />
			<rect x="30" y="10" width="7" height="1" fill="#000000" />
			<rect x="13" y="11" width="1" height="1" fill="#000000" />
			<rect x="16" y="11" width="2" height="1" fill="#000000" />
			<rect x="22" y="11" width="1" height="1" fill="#000000" />
			<rect x="24" y="11" width="1" height="1" fill="#000000" />
			<rect x="27" y="11" width="1" height="1" fill="#000000" />
			<rect x="7" y="12" width="2" height="1" fill="#000000" />
			<rect x="10" y="12" width="2" height="1" fill="#000000" />
			<rect x="13" y="12" width="2" height="1" fill="#000000" />
			<rect x="18" y="12" width="1" height="1" fill="#000000" />
			<rect x="21" y="12" width="1" height="1" fill="#000000" />
			<rect x="24" y="12" width="1" height="1" fill="#000000" />
			<rect x="26" y="12" width="3" height="1" fill="#000000" />
			<rect x="33" y="12" width="2" height="1" fill="#000000" />
			<rect x="4" y="13" width="2" height="1" fill="#000000" />
			<rect x="7" y="13" width="1" height="1" fill="#000000" />
			<rect x="9" y="13" width="1" height="1" fill="#000000" />
			<rect x="12" y="13" width="1" height="1" fill="#000000" />
			<rect x="14" y="13" width="1" height="1" fill="#000000" />
			<rect x="17" y="13" width="1" height="1" fill="#000000" />
			<rect x="22" y="13" width="1" height="1" fill="#000000" />
			<rect x="26" y="13" width="2" height="1" fill="#000000" />
			<rect x="29" y="13" width="1" height="1" fill="#000000" />
			<rect x="31" y="13" width="5" height="1" fill="#000000" />
			<rect x="5" y="14" width="1" height="1" fill="#000000" />
			<rect x="7" y="14" width="1" height="1" fill="#000000" />
			<rect x="10" y="14" width="1" height="1" fill="#000000" />
			<rect x="12" y="14" width="1" height="1" fill="#000000" />
			<rect x="14" y="14" width="1" height="1" fill="#000000" />
			<rect x="16" y="14" width="2" height="1" fill="#000000" />
			<rect x="19" y="14" width="2" height="1" fill="#000000" />
			<rect x="22" y="14" width="2" height="1" fill="#000000" />
			<rect x="25" y="14" width="1" height="1" fill="#000000" />
			<rect x="27" y="14" width="1" height="1" fill="#000000" />
			<rect x="29" y="14" width="1" height="1" fill="#000000" />
			<rect x="31" y="14" width="1" height="1" fill="#000000" />
			<rect x="33" y="14" width="4" height="1" fill="#000000" />
			<rect x="4" y="15" width="1" height="1" fill="#000000" />
			<rect x="6" y="15" width="4" height="1" fill="#000000" />
			<rect x="14" y="15" width="2" height="1" fill="#000000" />
			<rect x="17" y="15" width="1" height="1" fill="#000000" />
			<rect x="19" y="15" width="1" height="1" fill="#000000" />
			<rect x="23" y="15" width="1" height="1" fill="#000000" />
			<rect x="27" y="15" width="1" height="1" fill="#000000" />
			<rect x="30" y="15" width="3" height="1" fill="#000000" />
			<rect x="34" y="15" width="3" height="1" fill="#000000" />
			<rect x="4" y="16" width="2" height="1" fill="#000000" />
			<rect x="7" y="16" width="4" height="1" fill="#000000" />
			<rect x="12" y="16" width="5" height="1" fill="#000000" />
			<rect x="18" y="16" width="2" height="1" fill="#000000" />
			<rect x="21" y="16" width="1" height="1" fill="#000000" />
			<rect x="23" y="16" width="1" height="1" fill="#000000" />
			<rect x="25" y="16" width="4" height="1" fill="#000000" />
			<rect x="30" y="16" width="1" height="1" fill="#000000" />
			<rect x="32" y="16" width="1" height="1" fill="#000000" />
			<rect x="36" y="16" width="1" height="1" fill="#000000" />
			<rect x="4" y="17" width="2" height="1" fill="#000000" />
			<rect x="9" y="17" width="1" height="1" fill="#000000" />
			<rect x="11" y="17" width="3" height="1" fill="#000000" />
			<rect x="15" y="17" width="4" height="1" fill="#000000" />
			<rect x="20" y="17" width="1" height="1" fill="#000000" />
			<rect x="25" y="17" width="3" height="1" fill="#000000" />
			<rect x="29" y="17" width="1" height="1" fill="#000000" />
			<rect x="33" y="17" width="3" height="1" fill="#000000" />
			<rect x="6" y="18" width="7" height="1" fill="#000000" />
			<rect x="14" y="18" width="2" height="1" fill="#000000" />
			<rect x="17" y="18" width="2" height="1" fill="#000000" />
			<rect x="20" y="18" width="1" height="1" fill="#000000" />
			<rect x="22" y="18" width="1" height="1" fill="#000000" />
			<rect x="24" y="18" width="1" height="1" fill="#000000" />
			<rect x="29" y="18" width="1" height="1" fill="#000000" />
			<rect x="32" y="18" width="3" height="1" fill="#000000" />
			<rect x="6" y="19" width="1" height="1" fill="#000000" />
			<rect x="8" y="19" width="2" height="1" fill="#000000" />
			<rect x="12" y="19" width="2" height="1" fill="#000000" />
			<rect x="16" y="19" width="1" height="1" fill="#000000" />
			<rect x="19" y="19" width="5" height="1" fill="#000000" />
			<rect x="27" y="19" width="3" height="1" fill="#000000" />
			<rect x="32" y="19" width="1" height="1" fill="#000000" />
			<rect x="34" y="19" width="2" height="1" fill="#000000" />
			<rect x="7" y="20" width="1" height="1" fill="#000000" />
			<rect x="10" y="20" width="2" height="1" fill="#000000" />
			<rect x="13" y="20" width="4" height="1" fill="#000000" />
			<rect x="19" y="20" width="1" height="1" fill="#000000" />
			<rect x="27" y="20" width="1" height="1" fill="#000000" />
			<rect x="29" y="20" width="2" height="1" fill="#000000" />
			<rect x="32" y="20" width="3" height="1" fill="#000000" />
			<rect x="5" y="21" width="1" height="1" fill="#000000" />
			<rect x="8" y="21" width="2" height="1" fill="#000000" />
			<rect x="14" y="21" width="1" height="1" fill="#000000" />
			<rect x="16" y="21" width="3" height="1" fill="#000000" />
			<rect x="20" y="21" width="3" height="1" fill="#000000" />
			<rect x="24" y="21" width="1" height="1" fill="#000000" />
			<rect x="26" y="21" width="1" height="1" fill="#000000" />
			<rect x="28" y="21" width="1" height="1" fill="#000000" />
			<rect x="30" y="21" width="4" height="1" fill="#000000" />
			<rect x="36" y="21" width="1" height="1" fill="#000000" />
			<rect x="4" y="22" width="1" height="1" fill="#000000" />
			<rect x="6" y="22" width="1" height="1" fill="#000000" />
			<rect x="8" y="22" width="3" height="1" fill="#000000" />
			<rect x="13" y="22" width="2" height="1" fill="#000000" />
			<rect x="17" y="22" width="3" height="1" fill="#000000" />
			<rect x="21" y="22" width="2" height="1" fill="#000000" />
			<rect x="27" y="22" width="1" height="1" fill="#000000" />
			<rect x="32" y="22" width="3" height="1" fill="#000000" />
			<rect x="36" y="22" width="1" height="1" fill="#000000" />
			<rect x="4" y="23" width="1" height="1" fill="#000000" />
			<rect x="6" y="23" width="4" height="1" fill="#000000" />
			<rect x="13" y="23" width="1" height="1" fill="#000000" />
			<rect x="16" y="23" width="1" height="1" fill="#000000" />
			<rect x="18" y="23" width="1" height="1" fill="#000000" />
			<rect x="20" y="23" width="2" height="1" fill="#000000" />
			<rect x="23" y="23" width="2" height="1" fill="#000000" />
			<rect x="26" y="23" width="4" height="1" fill="#000000" />
			<rect x="31" y="23" width="1" height="1" fill="#000000" />
			<rect x="33" y="23" width="4" height="1" fill="#000000" />
			<rect x="5" y="24" width="1" height="1" fill="#000000" />
			<rect x="7" y="24" width="1" height="1" fill="#000000" />
			<rect x="9" y="24" width="2" height="1" fill="#000000" />
			<rect x="12" y="24" width="1" height="1" fill="#000000" />
			<rect x="16" y="24" width="4" height="1" fill="#000000" />
			<rect x="21" y="24" width="2" height="1" fill="#000000" />
			<rect x="26" y="24" width="1" height="1" fill="#000000" />
			<rect x="30" y="24" width="2" height="1" fill="#000000" />
			<rect x="33" y="24" width="1" height="1" fill="#000000" />
			<rect x="4" y="25" width="1" height="1" fill="#000000" />
			<rect x="6" y="25" width="1" height="1" fill="#000000" />
			<rect x="9" y="25" width="1" height="1" fill="#000000" />
			<rect x="11" y="25" width="6" height="1" fill="#000000" />
			<rect x="18" y="25" width="1" height="1" fill="#000000" />
			<rect x="21" y="25" width="1" height="1" fill="#000000" />
			<rect x="24" y="25" width="3" height="1" fill="#000000" />
			<rect x="28" y="25" width="1" height="1" fill="#000000" />
			<rect x="30" y="25" width="1" height="1" fill="#000000" />
			<rect x="32" y="25" width="3" height="1" fill="#000000" />
			<rect x="4" y="26" width="1" height="1" fill="#000000" />
			<rect x="6" y="26" width="1" height="1" fill="#000000" />
			<rect x="9" y="26" width="2" height="1" fill="#000000" />
			<rect x="13" y="26" width="1" height="1" fill="#000000" />
			<rect x="15" y="26" width="3" height="1" fill="#000000" />
			<rect x="19" y="26" width="1" height="1" fill="#000000" />
			<rect x="21" y="26" width="3" height="1" fill="#000000" />
			<rect x="26" y="26" width="2" height="1" fill="#000000" />
			<rect x="30" y="26" width="1" height="1" fill="#000000" />
			<rect x="32" y="26" width="1" height="1" fill="#000000" />
			<rect x="35" y="26" width="2" height="1" fill="#000000" />
			<rect x="4" y="27" width="1" height="1" fill="#000000" />
			<rect x="7" y="27" width="2" height="1" fill="#000000" />
			<rect x="11" y="27" width="1" height="1" fill="#000000" />
			<rect x="15" y="27" width="1" height="1" fill="#000000" />
			<rect x="17" y="27" width="4" height="1" fill="#000000" />
			<rect x="23" y="27" width="1" height="1" fill="#000000" />
			<rect x="26" y="27" width="3" height="1" fill="#000000" />
			<rect x="31" y="27" width="2" height="1" fill="#000000" />
			<rect x="34" y="27" width="2" height="1" fill="#000000" />
			<rect x="4" y="28" width="3" height="1" fill="#000000" />
			<rect x="9" y="28" width="4" height="1" fill="#000000" />
			<rect x="14" y="28" width="3" height="1" fill="#000000" />
			<rect x="19" y="28" width="1" height="1" fill="#000000" />
			<rect x="22" y="28" width="1" height="1" fill="#000000" />
			<rect x="24" y="28" width="1" height="1" fill="#000000" />
			<rect x="27" y="28" width="6" height="1" fill="#000000" />
			<rect x="12" y="29" width="2" height="1" fill="#000000" />
			<rect x="15" y="29" width="4" height="1" fill="#000000" />
			<rect x="20" y="29" width="1" height="1" fill="#000000" />
			<rect x="23" y="29" width="3" height="1" fill="#000000" />
			<rect x="28" y="29" width="1" height="1" fill="#000000" />
			<rect x="32" y="29" width="1" height="1" fill="#000000" />
			<rect x="34" y="29" width="1" height="1" fill="#000000" />
			<rect x="4" y="30" width="7" height="1" fill="#000000" />
			<rect x="12" y="30" width="1" height="1" fill="#000000" />
			<rect x="14" y="30" width="2" height="1" fill="#000000" />
			<rect x="20" y="30" width="1" height="1" fill="#000000" />
			<rect x="22" y="30" width="1" height="1" fill="#000000" />
			<rect x="27" y="30" width="2" height="1" fill="#000000" />
			<rect x="30" y="30" width="1" height="1" fill="#000000" />
			<rect x="32" y="30" width="1" height="1" fill="#000000" />
			<rect x="4" y="31" width="1" height="1" fill="#000000" />
			<rect x="10" y="31" width="1" height="1" fill="#000000" />
			<rect x="13" y="31" width="1" height="1" fill="#000000" />
			<rect x="15" y="31" width="1" height="1" fill="#000000" />
			<rect x="17" y="31" width="2" height="1" fill="#000000" />
			<rect x="22" y="31" width="2" height="1" fill="#000000" />
			<rect x="25" y="31" width="4" height="1" fill="#000000" />
			<rect x="32" y="31" width="4" height="1" fill="#000000" />
			<rect x="4" y="32" width="1" height="1" fill="#000000" />
			<rect x="6" y="32" width="3" height="1" fill="#000000" />
			<rect x="10" y="32" width="1" height="1" fill="#000000" />
			<rect x="12" y="32" width="1" height="1" fill="#000000" />
			<rect x="15" y="32" width="3" height="1" fill="#000000" />
			<rect x="19" y="32" width="3" height="1" fill="#000000" />
			<rect x="23" y="32" width="1" height="1" fill="#000000" />
			<rect x="25" y="32" width="9" height="1" fill="#000000" />
			<rect x="35" y="32" width="1" height="1" fill="#000000" />
			<rect x="4" y="33" width="1" height="1" fill="#000000" />
			<rect x="6" y="33" width="3" height="1" fill="#000000" />
			<rect x="10" y="33" width="1" height="1" fill="#000000" />
			<rect x="12" y="33" width="3" height="1" fill="#000000" />
			<rect x="16" y="33" width="1" height="1" fill="#000000" />
			<rect x="18" y="33" width="4" height="1" fill="#000000" />
			<rect x="23" y="33" width="7" height="1" fill="#000000" />
			<rect x="31" y="33" width="1" height="1" fill="#000000" />
			<rect x="35" y="33" width="1" height="1" fill="#000000" />
			<rect x="4" y="34" width="1" height="1" fill="#000000" />
			<rect x="6" y="34" width="3" height="1" fill="#000000" />
			<rect x="10" y="34" width="1" height="1" fill="#000000" />
			<rect x="14" y="34" width="2" height="1" fill="#000000" />
			<rect x="18" y="34" width="4" height="1" fill="#000000" />
			<rect x="23" y="34" width="1" height="1" fill="#000000" />
			<rect x="28" y="34" width="1" height="1" fill="#000000" />
			<rect x="32" y="34" width="2" height="1" fill="#000000" />
			<rect x="35" y="34" width="2" height="1" fill="#000000" />
			<rect x="4" y="35" width="1" height="1" fill="#000000" />
			<rect x="10" y="35" width="1" height="1" fill="#000000" />
			<rect x="13" y="35" width="1" height="1" fill="#000000" />
			<rect x="15" y="35" width="1" height="1" fill="#000000" />
			<rect x="17" y="35" width="8" height="1" fill="#000000" />
			<rect x="26" y="35" width="2" height="1" fill="#000000" />
			<rect x="30" y="35" width="1" height="1" fill="#000000" />
			<rect x="33" y="35" width="1" height="1" fill="#000000" />
			<rect x="35" y="35" width="2" height="1" fill="#000000" />
			<rect x="4" y="36" width="7" height="1" fill="#000000" />
			<rect x="13" y="36" width="2" height="1" fill="#000000" />
			<rect x="16" y="36" width="3" height="1" fill="#000000" />
			<rect x="23" y="36" width="2" height="1" fill="#000000" />
			<rect x="27" y="36" width="4" height="1" fill="#000000" />
			<rect x="32" y="36" width="1" height="1" fill="#000000" />
			<rect x="34" y="36" width="1" height="1" fill="#000000" />
		</g>
	</g>
</svg>
