<?xml version="1.0" encoding="UTF-8" standalone="no"?>
<!DOCTYPE svg PUBLIC "-//W3C//DTD SVG 1.0//EN"
"http://www.w3.org/TR/2001/REC-SVG-20010904/DTD/svg10.dtd">
<!-- Created with Inkscape (http://www.inkscape.org/) -->
<svg
   xmlns="http://www.w3.org/2000/svg"
   xmlns:xlink="http://www.w3.org/1999/xlink"
   version="1.0"
   x="0.0000000"
   y="0.0000000"
   width="742.85004"
   height="243.61250"
   id="svg1">
  <defs
     id="defs3" />
  <g
     id="layer1" />
  <path
     d="M 5.0000000,123.61250 L 80.000000,4.8625031 C 80.000000,4.8625031 148.75000,4.8625031 148.75000,4.8625031 C 148.75000,4.8625031 80.000000,123.61250 80.000000,123.61250 C 80.000000,123.61250 148.75000,239.86250 148.75000,239.86250 L 73.750000,239.86250 L 5.0000000,123.61250 z M 92.500000,123.61250 L 161.25000,4.8625031 C 161.25000,4.8625031 236.25000,4.8625031 236.25000,4.8625031 C 236.25000,4.8625031 167.50000,123.61250 167.50000,123.61250 L 236.25000,239.86250 L 161.25000,239.86250 L 92.500000,123.61250 z M 180.00000,123.61250 L 248.75000,4.8625031 C 248.75000,4.8625031 323.75000,4.8625031 323.75000,4.8625031 C 323.75000,4.8625031 256.25000,123.61250 256.25000,123.61250 L 323.75000,239.86250 L 248.75000,239.86250 L 180.00000,123.61250 z M 423.75000,4.8625031 C 423.75000,4.8625031 492.50000,4.8625031 492.50000,4.8625031 L 405.00000,239.86250 L 336.25000,239.86250 L 423.75000,4.8625031 z M 573.75000,123.61250 C 573.75000,123.61250 505.00000,4.8625031 505.00000,4.8625031 C 505.00000,4.8625031 580.00000,4.8625031 580.00000,4.8625031 C 580.00000,4.8625031 648.75000,123.61250 648.75000,123.61250 L 580.00000,239.86250 L 505.00000,239.86250 C 505.00000,239.86250 573.75000,123.61250 573.75000,123.61250 z M 592.50000,239.86250 C 592.50000,239.86250 661.25000,123.61250 661.25000,123.61250 C 661.25000,123.61250 592.50000,4.8625031 592.50000,4.8625031 L 667.50000,4.8625031 L 736.25000,123.61250 L 667.50000,239.86250 C 667.50000,239.86250 592.50000,239.86250 592.50000,239.86250 z "
     id="path1103" />
</svg>
