<?xml version="1.0" encoding="UTF-8" standalone="no"?>
<!-- Created with Inkscape (http://www.inkscape.org/) -->

<svg
   xmlns:dc="http://purl.org/dc/elements/1.1/"
   xmlns:cc="http://creativecommons.org/ns#"
   xmlns:rdf="http://www.w3.org/1999/02/22-rdf-syntax-ns#"
   xmlns:svg="http://www.w3.org/2000/svg"
   xmlns="http://www.w3.org/2000/svg"
   xmlns:sodipodi="http://sodipodi.sourceforge.net/DTD/sodipodi-0.dtd"
   xmlns:inkscape="http://www.inkscape.org/namespaces/inkscape"
   width="600"
   height="300"
   id="svg3588"
   version="1.1"
   inkscape:version="0.91 r13725"
   sodipodi:docname="logo.neu.svg"
   inkscape:export-filename="/home/hl/lpd/logo/logo.1200x600.white.png"
   inkscape:export-xdpi="180"
   inkscape:export-ydpi="180">
  <defs
     id="defs3590">
    <clipPath
       clipPathUnits="userSpaceOnUse"
       id="clipPath5114">
      <rect
         style="opacity:1;fill:#ffffff;fill-opacity:1;stroke:none;stroke-width:5;stroke-miterlimit:4;stroke-dasharray:none"
         id="rect5116"
         width="328.50293"
         height="114.14825"
         x="110.6628"
         y="108.91199"
         ry="1.7504801" />
    </clipPath>
  </defs>
  <sodipodi:namedview
     id="base"
     pagecolor="#969696"
     bordercolor="#666666"
     borderopacity="1.0"
     inkscape:pageopacity="0"
     inkscape:pageshadow="2"
     inkscape:zoom="1.0729879"
     inkscape:cx="288.92316"
     inkscape:cy="154.4061"
     inkscape:document-units="px"
     inkscape:current-layer="layer2"
     showgrid="false"
     inkscape:window-width="1366"
     inkscape:window-height="657"
     inkscape:window-x="0"
     inkscape:window-y="30"
     inkscape:window-maximized="1"
     fit-margin-top="0"
     fit-margin-left="0"
     fit-margin-right="0"
     fit-margin-bottom="0"
     showguides="true"
     inkscape:guide-bbox="true" />
  <metadata
     id="metadata3593">
    <rdf:RDF>
      <cc:Work
         rdf:about="">
        <dc:format>image/svg+xml</dc:format>
        <dc:type
           rdf:resource="http://purl.org/dc/dcmitype/StillImage" />
        <dc:title></dc:title>
      </cc:Work>
    </rdf:RDF>
  </metadata>
  <g
     inkscape:groupmode="layer"
     id="layer4"
     inkscape:label="white"
     style="display:inline"
     sodipodi:insensitive="true">
    <rect
       style="opacity:1;fill:#ffffff;fill-opacity:1;stroke:none;stroke-width:5;stroke-miterlimit:4;stroke-dasharray:none"
       id="rect3525"
       width="600"
       height="300"
       x="0"
       y="0"
       ry="1.9987705">
      <title
         id="title4327">background</title>
    </rect>
  </g>
  <g
     inkscape:groupmode="layer"
     id="layer2"
     inkscape:label="Presentation Day"
     style="display:inline"
     transform="translate(0,-19.78125)">
    <text
       xml:space="preserve"
       style="font-style:normal;font-variant:normal;font-weight:normal;font-stretch:normal;font-size:106.12490082px;line-height:125%;font-family:'Kaushan Script';-inkscape-font-specification:'Kaushan Script';letter-spacing:0px;word-spacing:0px;display:inline;opacity:1;fill:#4d4d4d;fill-opacity:1;stroke:none"
       x="10.794817"
       y="339.44589"
       id="text6353"
       sodipodi:linespacing="125%"
       transform="scale(1.1669888,0.85690623)"><tspan
         sodipodi:role="line"
         id="tspan6355"
         x="10.794817"
         y="339.44589"
         style="font-style:normal;font-variant:normal;font-weight:600;font-stretch:normal;font-size:61.61216354px;font-family:FreeSans;-inkscape-font-specification:'FreeSans Semi-Bold';letter-spacing:0px;word-spacing:0px;fill:#4d4d4d"
         dx="0">Presentation Day</tspan></text>
  </g>
  <g
     inkscape:label="Tux"
     inkscape:groupmode="layer"
     id="layer1"
     transform="translate(-2.375,9.28125)"
     style="display:inline;opacity:1">
    <rect
       style="fill:none;stroke:none;stroke-width:1.01648748"
       id="rect3055"
       width="683.48663"
       height="318.77206"
       x="2.8743286"
       y="-28.556499"
       ry="0.89194244" />
    <g
       id="g4353">
      <g
         id="g4335"
         style="display:inline;opacity:1"
         transform="translate(2.375,-29.0625)">
        <path
           inkscape:connector-curvature="0"
           id="path6263"
           style="display:inline;fill:#b3b3b5;fill-opacity:1;fill-rule:nonzero;stroke:#000000;stroke-width:2.57039785"
           d="m 382.65377,210.43561 48.54291,0 0,-20.01171 -48.54291,0 0,20.01171 z" />
        <path
           d="m 287.08497,188.63778 238.84478,0 0,-144.905783 -238.84478,0 0,144.905783 z"
           style="fill:none;stroke:#000000;stroke-width:5.13878632;stroke-linecap:butt;stroke-linejoin:miter;stroke-miterlimit:4;stroke-dasharray:none;stroke-opacity:1"
           id="path6259"
           inkscape:connector-curvature="0" />
      </g>
      <path
         inkscape:connector-curvature="0"
         id="path6255"
         style="display:inline;opacity:1;fill:#ffffff;fill-opacity:1;fill-rule:nonzero;stroke:none"
         d="m 287.08498,188.63779 238.84476,0 0,-144.905783 -238.84476,0 0,144.905783 z"
         transform="translate(2.375,-29.0625)" />
      <path
         sodipodi:nodetypes="ccccccccccccccccccccccccccccccccccccccccc"
         inkscape:connector-curvature="0"
         id="path7212"
         d="m 355.87946,139.35386 c -1.46011,-0.0699 -3.26331,1.11833 -4.38693,2.56913 -0.76798,1.18267 -1.43416,1.62411 -1.66997,2.6811 -1.47737,-0.27674 -2.35277,1.42445 -3.54889,1.33666 -1.25249,0.45203 -1.45945,0.80817 -2.73278,1.21035 -0.88498,0.65108 -4.41969,0.21642 -3.98181,2.4463 0.0807,0.96911 -0.64912,1.25227 -1.0699,1.9 0.13176,1.13884 0.41841,1.97048 0.4205,3.05199 -0.16601,1.16043 0.34584,1.8659 0.54971,2.82779 -0.0233,1.268 -0.74716,2.32799 -0.75324,3.59042 -0.47617,0.75979 -0.73235,2.30833 -0.82948,3.55884 -0.75809,1.2059 0.96458,2.76171 0.89908,3.03733 1.12068,0.29927 2.71737,2.30644 3.99766,2.07086 1.73172,0 3.56962,0.65552 5.30135,0.65552 1.4079,0.50264 3.08405,0.42223 4.54579,0.77759 1.43826,0.0597 2.44305,0.13811 4.01084,0.23131 1.49882,0.71588 2.80276,0.44214 4.56771,0.54546 -0.44611,0.88436 0.91903,0.87372 1.82426,1.14885 0.94125,0.56531 1.70422,0.47749 2.7037,1.23044 1.37191,0.36032 2.6926,0.83493 4.22322,0.77456 0.65099,0.48689 1.90999,0.35726 2.72641,0.66834 1.05999,-0.16418 1.88386,0.29057 2.90171,0.22278 1.87601,-0.002 3.11576,-1.3069 4.99116,-1.31106 1.4342,-0.37502 1.60589,0.0711 2.7245,-1.01318 0.72051,-0.49628 2.53228,-4.82751 3.20288,-5.48567 0.77635,-1.34708 1.59495,1.41366 1.85296,-0.21011 0.70369,-2.30648 -0.36242,-3.09223 -1.43681,-4.85797 -0.79169,-1.16687 -3.33128,-1.67633 -3.84086,-2.0725 -1.18425,-0.70148 -1.67365,-2.06843 -2.72035,-2.88759 -0.61987,-0.36661 -1.50666,-2.08748 -2.17588,-2.43474 -0.66534,-0.52464 -2.35466,-1.75465 -3.46346,-2.89612 -0.7558,-1.25416 -1.14006,-2.08118 -1.76422,-2.58702 -0.30039,-1.35803 -0.94119,-2.29041 -1.33442,-2.75501 -0.44721,-1.52882 -1.45138,-2.87154 -1.98833,-4.23743 -0.54076,-0.71386 -0.84178,-1.71674 -1.5452,-2.60473 -1.10224,-1.44911 -2.81779,-1.42375 -4.19114,-2.29638 -1.28878,-0.35511 -2.66461,-0.49048 -4.11287,-0.44556 -1.47079,0.006 -2.4739,0.76455 -3.62192,1.4561 l -0.27447,0.10327 0,0 z"
         style="display:inline;opacity:1;fill:#ffcc00;stroke:none"
         transform="translate(2.375,-29.0625)" />
      <path
         inkscape:connector-curvature="0"
         id="path6267"
         style="display:inline;opacity:1;fill:#b3b3b3;fill-opacity:1;fill-rule:nonzero;stroke:none"
         d="m 315.63184,214.80447 179.73797,0 0,-1.52789 -179.73797,0 0,1.52789 z"
         transform="translate(2.375,-29.0625)" />
      <path
         inkscape:connector-curvature="0"
         id="path6265"
         style="display:inline;opacity:1;fill:#000000;stroke:#000000;stroke-width:5.2263999;stroke-linecap:butt;stroke-linejoin:miter;stroke-miterlimit:4;stroke-dasharray:none;stroke-opacity:1"
         d="m 382.65378,210.43561 48.54289,0 0,-20.01171 -48.54289,0 0,20.01171 z"
         transform="translate(2.375,-29.0625)" />
      <path
         inkscape:connector-curvature="0"
         id="path6269"
         style="display:inline;opacity:1;fill:none;stroke:#000000;stroke-width:3.38765597;stroke-linecap:butt;stroke-linejoin:miter;stroke-miterlimit:4;stroke-dasharray:none;stroke-opacity:1"
         d="m 315.63184,214.80447 179.73797,0 0,-1.52789 -179.73797,0 0,1.52789 z"
         transform="translate(2.375,-29.0625)" />
      <path
         sodipodi:nodetypes="ccccccccccccc"
         inkscape:connector-curvature="0"
         id="path7214"
         d="m 436.78752,138.07728 c 4.66664,-0.80731 2.56961,3.21594 7.18923,2.62542 1.86996,-0.8113 9.96899,0.32622 11.4894,2.43333 3.18957,3.49392 3.79012,6.88311 6.60294,10.60926 0.87425,2.14323 2.68104,2.68791 2.94706,6.16016 -3.97472,2.72671 -7.0228,4.39986 -11.54484,5.59153 -3.47306,1.84744 -6.28902,3.64399 -8.67187,5.60009 -4.62419,3.53366 -6.5302,5.1698 -12.35218,5.75785 -4.05397,0.22007 -12.11653,-2.52753 -12.51902,-6.48982 -0.50965,-3.305 -1.7696,-4.82777 0.78268,-6.91375 2.10847,-5.70457 3.26475,-11.49369 4.00122,-18.41229 0.34141,-3.38868 1.17851,-5.30985 4.15205,-6.39971 1.65207,-0.57822 6.23058,-1.02992 7.92333,-0.56207 z"
         style="display:inline;opacity:1;fill:#ffcc00;stroke:none"
         transform="translate(2.375,-29.0625)" />
      <path
         sodipodi:nodetypes="ccccccccccc"
         inkscape:connector-curvature="0"
         id="path7216"
         d="m 397.40924,81.345418 c 0.16479,-1.67744 -3.54598,-0.391808 -8.48641,3.153323 -2.32788,2.225017 -4.08265,1.245497 -6.12655,3.859546 -2.64164,2.687668 -0.32551,4.729442 2.15082,4.419137 3.32555,0.871816 4.85221,3.683376 9.32961,5.492573 2.5761,0.914747 6.42989,-0.09555 8.81936,-0.394103 3.02565,-2.270951 7.03511,-2.146391 10.1882,-4.194111 2.20474,-0.93056 4.37221,-3.29065 3.34066,-5.908914 -1.28113,-3.421196 -5.55431,-2.748414 -8.31296,-3.948454 -3.57235,-0.916729 -6.45952,-4.138809 -10.26577,-3.134444 z"
         style="display:inline;opacity:1;fill:#ffcc00;stroke:none"
         transform="translate(2.375,-29.0625)" />
      <path
         inkscape:connector-curvature="0"
         id="path6261"
         style="display:inline;opacity:1;fill:#000000;fill-opacity:1;fill-rule:nonzero;stroke:none"
         d="m 404.76934,54.299707 c -0.99965,0 -2.05617,0.03276 -3.14585,0.111399 -27.72497,1.757023 -20.35788,24.829289 -20.78427,32.546169 -0.49744,5.654641 -1.9614,10.100813 -6.88388,15.627615 -5.79418,5.4278 -13.9525,14.22532 -17.80423,23.361 -1.82877,4.31832 -2.7005,8.73151 -1.88563,12.88897 -0.26057,0.17732 -0.50219,0.37118 -0.72013,0.54854 -1.70556,1.43533 -2.96106,3.17172 -4.36814,4.33481 -1.29813,1.03114 -3.1648,1.4147 -5.22094,1.99626 -2.03721,0.58153 -4.29235,1.43531 -5.66156,3.51403 -1.24125,1.81892 -0.87172,3.91411 -0.5022,5.86501 0.38849,1.93024 0.75805,3.76976 0.26059,5.00711 -1.62975,3.49753 -1.8335,5.91448 -0.68697,7.67149 1.15124,1.75702 3.50116,2.52831 6.14479,2.96138 5.32992,0.88677 12.5312,0.66402 18.19275,3.03149 l 0.50219,-0.72594 -0.48323,0.72594 c 6.06897,2.51179 12.23271,3.39855 17.13624,2.51179 3.57224,-0.6434 6.46222,-2.30147 7.94037,-4.87926 3.85177,-0.0146 8.06831,-1.30745 14.82425,-1.59616 4.57189,-0.28872 10.30925,1.28686 16.89464,0.99814 0.17047,0.56504 0.40744,1.0971 0.76277,1.61265 0,0.0146 0,0.0146 0,0.0146 2.55363,4.02548 7.30552,5.86087 12.36066,5.55568 5.05038,-0.32174 10.43712,-2.67267 14.78633,-6.74764 l -0.79593,-0.53206 0.79593,0.53206 c 4.14548,-3.96362 11.02936,-5.60927 15.60125,-7.78286 2.27409,-1.08062 4.12652,-2.44996 4.2734,-4.41319 0.15161,-1.96739 -1.33128,-4.19046 -4.6998,-7.13946 -1.10863,-0.99813 -1.64872,-2.82116 -2.22197,-4.76789 -0.55434,-1.95086 -1.2034,-4.0626 -3.21691,-5.41542 -0.0182,-0.0146 -0.0182,-0.0146 -0.0182,-0.0146 -0.81486,-0.54443 -1.64871,-0.93212 -2.50149,-1.19197 2.83313,-6.58678 1.72454,-13.16118 -1.12759,-19.10453 -3.49641,-7.28381 -9.60329,-13.63139 -14.26993,-17.98269 -5.2162,-5.188585 -10.32343,-10.117311 -10.23341,-17.384639 0.1656,-11.115422 1.55396,-31.704769 -23.24314,-31.737792 z m 3.36849,17.108321 c 1.40709,0 2.61047,0.325805 3.83281,1.031089 1.25547,0.725915 2.16512,1.629189 2.88525,2.870637 0.72014,1.224969 1.05652,2.416936 1.08967,3.848135 0,0.03316 0,0.06592 0.0182,0.09909 0.0182,1.464179 -0.29372,2.689148 -0.99965,3.96362 -0.40745,0.725895 -0.86701,1.319802 -1.4071,1.851858 -0.19884,-0.0824 -0.38851,-0.144565 -0.58747,-0.210423 -1.38816,-0.466052 -2.46361,-0.771246 -3.35429,-1.014629 0.31743,-0.305194 0.5922,-0.659891 0.83382,-1.109483 0.35058,-0.692893 0.52115,-1.373415 0.55431,-2.161204 0,-0.03317 0.0182,-0.06592 0.0182,-0.09491 0.0182,-0.758896 -0.10903,-1.418829 -0.38849,-2.095241 -0.29373,-0.692913 -0.68222,-1.191946 -1.21758,-1.629147 -0.55906,-0.416591 -1.09441,-0.593929 -1.74346,-0.61043 -0.0382,-0.0146 -0.0711,-0.0146 -0.09,-0.0146 -0.6301,0.0146 -1.1465,0.177317 -1.70557,0.548556 -0.5922,0.371219 -1.01386,0.870251 -1.36919,1.546664 -0.36951,0.676412 -0.53536,1.352824 -0.57326,2.157113 0,0.03276 0,0.04965 0,0.0824 -0.0182,0.44955 0.0182,0.853771 0.11371,1.24147 -1.26023,-0.503206 -2.44466,-0.8249 -3.57223,-1.03113 -0.0568,-0.387699 -0.0948,-0.775398 -0.11371,-1.196077 l 0,-0.111399 c -0.0182,-1.447699 0.29848,-2.689169 0.99965,-3.947139 0.70591,-1.274471 1.59186,-2.173594 2.81417,-2.91601 1.2413,-0.742375 2.44468,-1.080591 3.88495,-1.097092 z m -19.26346,1.208468 c 0.92383,0 1.77664,0.243279 2.62467,0.791877 0.9428,0.593929 1.64872,1.336345 2.24092,2.400456 0.59222,1.064111 0.90491,2.124091 0.99967,3.382062 l 0,0.0146 c 0.0382,0.532055 0.0382,1.014608 -0.0182,1.497181 -0.18466,0.04965 -0.35058,0.0824 -0.53535,0.132049 -0.99966,0.272193 -1.89034,0.64341 -2.66734,1.047589 0.0759,-0.42068 0.0947,-0.84138 0.0182,-1.323953 0,-0.0146 0,-0.04965 0,-0.06175 -0.0759,-0.64752 -0.24172,-1.179575 -0.53534,-1.7075 -0.2985,-0.565078 -0.63013,-0.952778 -1.07546,-1.257971 -0.40746,-0.276344 -0.79595,-0.404199 -1.2034,-0.387698 -0.0521,0 -0.09,0 -0.1279,0 -0.48325,0.03316 -0.87172,0.210443 -1.24125,0.565036 -0.36955,0.354718 -0.61116,0.804269 -0.79596,1.385826 -0.1656,0.577428 -0.2227,1.158965 -0.14696,1.818898 0,0.0146 0.0182,0.04944 0.0182,0.06592 0.0759,0.643411 0.24172,1.175466 0.51644,1.707522 0.29847,0.565058 0.64906,0.948646 1.0944,1.257949 0.0709,0.04527 0.14696,0.09491 0.22272,0.127877 -0.46429,0.288715 -0.68696,0.416592 -1.05651,0.626931 -0.26058,0.144566 -0.53535,0.305214 -0.87173,0.515576 -0.73907,-0.548577 -1.31235,-1.224991 -1.80981,-2.128222 -0.5922,-1.060002 -0.90962,-2.124112 -0.99966,-3.382063 -0.0948,-1.257991 0.052,-2.334473 0.49747,-3.464566 0.44533,-1.109483 1.01861,-1.917882 1.8714,-2.577814 0.84805,-0.659891 1.70083,-0.998108 2.73838,-1.047589 0.0711,0 0.16561,0 0.24173,0 z m 8.7505,8.702617 c 2.18411,0 4.79457,0.548557 7.94038,2.157072 1.94245,0.981648 3.45854,1.080633 6.94074,2.256099 1.68189,0.532055 2.66257,1.24147 3.14585,1.983865 0.47849,0.738306 0.47849,1.546684 0.09,2.400455 -0.81012,1.691042 -3.36846,3.476938 -6.97385,4.363669 -1.7577,0.453702 -3.29745,1.43533 -5.08831,2.256098 -1.81453,0.804269 -3.85174,1.468331 -6.62804,1.336324 -2.34991,-0.111398 -3.77593,-0.738286 -5.05038,-1.546663 -1.2792,-0.804268 -2.38779,-1.818897 -4.01756,-2.577814 -2.62942,-1.175446 -4.06968,-2.528292 -4.51503,-3.703758 -0.44533,-1.158964 -0.0377,-2.173593 1.27446,-2.932511 1.46392,-0.870251 2.48254,-1.468289 3.16476,-1.851857 0.66801,-0.387698 0.94753,-0.532056 1.17019,-0.692935 1.08969,-0.820768 2.84738,-2.32206 5.49575,-3.047975 0.9049,-0.239107 1.9235,-0.400069 3.05106,-0.400069 z m 15.17485,7.073448 c -0.94279,0.04527 -1.90455,0.41657 -3.05105,0.915644 -1.14654,0.515555 -2.42572,1.146616 -3.81386,1.790005 -2.79524,1.257971 -5.99321,2.466439 -9.17692,2.466439 -3.18373,0 -5.73736,-1.163096 -7.64665,-2.355063 -0.96175,-0.593928 -1.73873,-1.191987 -2.36883,-1.658039 -0.3127,-0.226861 -0.59222,-0.437201 -0.84807,-0.581559 -0.26057,-0.160836 -0.46428,-0.305214 -0.89068,-0.305214 l -0.0182,0.692914 c -0.0381,0.2433 -0.0523,0.2433 -0.0523,0.2433 0.0162,0.01251 0.12789,0.02899 0.23691,0.111398 0.18465,0.111399 0.44535,0.288714 0.75803,0.515555 0.61115,0.466072 1.44502,1.097113 2.44465,1.724043 2.01825,1.25795 4.83246,2.544771 8.38572,2.544771 3.55326,0 6.92178,-1.303322 9.76911,-2.594274 1.40711,-0.643431 2.70051,-1.286841 3.79491,-1.769415 1.08967,-0.486684 2.01827,-0.791877 2.55363,-0.808378 z m 3.16481,3.349081 c 2.36881,7.345682 7.86456,17.949678 11.40361,23.138268 1.86664,2.73865 5.6047,8.57063 7.21551,15.61112 1.03757,-0.0332 2.14617,0.0782 3.36852,0.32169 4.22128,-8.62013 -3.59118,-17.90017 -7.14448,-20.49449 -1.44496,-1.09709 -1.51605,-1.59616 -0.79591,-1.57964 3.8707,2.70565 8.94003,8.13756 10.78772,14.25827 0.85281,2.78815 1.01862,5.72062 0.11371,8.62013 0.44533,0.14457 0.90489,0.30522 1.35026,0.46608 6.77489,2.61079 9.29059,4.86687 8.08723,7.96022 -0.40746,-0.0146 -0.79595,-0.0146 -1.18442,-0.0146 -0.0182,0 -0.0568,0.0146 -0.09,0.0146 0.9807,-2.44994 -1.20337,-4.25234 -6.99759,-6.31456 -5.99792,-2.09524 -10.78772,-1.88488 -11.60262,2.33446 -0.0377,0.22686 -0.0948,0.45368 -0.11371,0.67641 -0.45959,0.13205 -0.90492,0.29284 -1.35025,0.48257 -2.82842,1.20847 -4.36816,3.41916 -5.21622,6.1248 -0.87174,2.70565 -1.11335,5.97638 -1.35025,9.65127 -0.13276,1.8519 -1.0944,4.34719 -2.07511,7.00747 -9.84494,5.5268 -23.50369,7.92726 -35.10631,1.69104 -0.777,-0.98161 -1.68663,-1.95089 -2.61048,-2.91602 -0.59221,-0.6104 -1.20336,-1.20846 -1.81456,-1.81888 1.2034,0 2.20306,-0.14832 3.03689,-0.43719 1.0186,-0.37118 1.71978,-0.94861 2.07037,-1.70753 0.70591,-1.49717 0,-3.6089 -2.25514,-6.02584 -2.27882,-2.41693 -6.10689,-5.13908 -11.73528,-7.86125 -4.14548,-2.02924 -6.45748,-4.51216 -7.53294,-7.21781 -1.08965,-2.68914 -0.9428,-5.60515 -0.09,-8.49229 1.59184,-5.53916 5.71837,-10.92159 8.3478,-14.30365 0.70117,-0.4042 0.23689,0.77129 -2.66734,5.0236 -2.61046,3.90177 -7.49501,12.88897 -0.81487,19.91294 0.18467,-4.99473 1.70559,-10.08434 4.24024,-14.85221 3.70015,-6.62391 11.43681,-18.07755 12.06691,-27.22974 0.31268,0.193797 1.40711,0.775396 1.88561,0.985757 1.42605,0.659912 2.47782,1.625038 3.86596,2.495289 1.38816,0.886773 3.11267,1.641539 5.71839,1.757025 3.05583,0.144565 5.38677,-0.61456 7.29606,-1.468311 1.8856,-0.85375 3.42063,-1.802397 4.84665,-2.173594 l 0.0182,0 c 3.03688,-0.742416 5.45784,-2.078719 6.82704,-3.625404 z m 14.34573,46.787978 c 0.23689,3.18821 2.23618,6.42591 5.7705,7.11882 3.85176,0.80841 9.4233,-1.80239 11.77319,-3.93061 0.45954,-0.0146 0.92384,-0.029 1.36917,-0.0453 2.07039,-0.0331 3.79491,0.0617 5.5526,1.27033 l 0.0182,0 0,0.0146 c 1.35023,0.90327 1.9993,2.61082 2.57258,4.52867 0.5543,1.93025 0.99965,4.009 2.68154,5.51029 3.22164,2.81702 4.25444,4.73488 4.18337,5.94335 -0.0948,1.22498 -1.2223,2.12823 -3.27847,3.10986 -4.12656,1.96738 -11.45574,3.65841 -16.11766,8.1211 -4.05073,3.81925 -9.01109,5.89386 -13.36032,6.17019 -4.36814,0.27221 -8.12514,-1.15899 -10.32815,-4.65653 l -0.0182,-0.0167 c -1.36918,-2.06222 -0.79593,-5.31643 0.35061,-8.74799 1.16545,-3.43155 2.83313,-6.96209 3.05581,-9.81213 l 0,-0.0146 c 0.24172,-3.67491 0.49744,-6.87961 1.27444,-9.34191 0.77697,-2.48293 2.01826,-4.14097 4.20233,-5.0937 0.0948,-0.0496 0.18466,-0.0784 0.29848,-0.12767 z m -70.86171,0.23911 c 0.33162,0 0.68219,0.0332 1.0328,0.0659 2.48256,0.3052 4.62873,1.65802 6.6991,3.88525 2.09407,2.22309 4.01757,5.25044 5.99792,8.59952 l 0,0.0146 c 1.61083,2.61077 4.96039,5.49378 7.82668,8.44279 2.85208,2.94899 5.05514,5.89799 4.75663,8.15406 l 0,0.0331 c -0.36952,3.84815 -3.12686,5.94336 -7.36235,6.71879 -4.24024,0.75476 -9.9776,0 -15.71494,-2.3716 -6.34851,-2.63966 -13.89566,-2.38392 -18.74707,-3.17171 -2.42571,-0.40421 -3.99863,-0.99811 -4.71875,-2.12823 -0.72015,-1.10948 -0.7391,-3.04384 0.79594,-6.36405 l 0,-0.0146 0.0182,-0.0146 c 0.75804,-1.85191 0.20372,-3.88114 -0.16561,-5.7825 -0.36953,-1.90138 -0.55429,-3.62543 0.25586,-4.83389 l 0.0182,0 0,-0.0146 c 1.0565,-1.59617 2.59151,-2.1736 4.51978,-2.72213 1.9235,-0.53206 4.19758,-0.96513 5.99316,-2.38396 l 0.0182,-0.0146 c 1.66768,-1.38582 2.92315,-3.12634 4.38711,-4.35129 1.24129,-1.03113 2.45885,-1.72404 4.33026,-1.74052 z"
         sodipodi:nodetypes="ccccccccccccccccccccccccccccccccccccccsccccccccccccccccccccccccccsscscccccccccccscccccccccccccssccccccccccccccscccscccccccccsccccccccccccccsccccccccccccccccccccccccccccccccccccccccccccccccccsccccccccccccccsccccccccs"
         transform="translate(2.375,-29.0625)" />
    </g>
  </g>
  <g
     inkscape:groupmode="layer"
     id="layer5"
     inkscape:label="Linux"
     style="display:inline"
     transform="translate(0,-19.78125)">
    <text
       transform="scale(1.0787305,0.92701557)"
       sodipodi:linespacing="125%"
       id="text6331"
       y="142.26665"
       x="27.416935"
       style="font-style:normal;font-variant:normal;font-weight:normal;font-stretch:normal;font-size:90.59804535px;line-height:125%;font-family:'Kaushan Script';-inkscape-font-specification:'Kaushan Script';letter-spacing:0px;word-spacing:0px;display:inline;opacity:1;fill:#808080;fill-opacity:1;stroke:#000000;stroke-width:2.38484454"
       xml:space="preserve"><tspan
         style="font-style:normal;font-variant:normal;font-weight:bold;font-stretch:normal;font-size:103.77077484px;font-family:FreeSans;-inkscape-font-specification:'FreeSans Bold';letter-spacing:0px;fill:#808080;stroke:#000000;stroke-width:2.38484454"
         y="142.26665"
         x="27.416935"
         id="tspan6333"
         sodipodi:role="line">Linux</tspan></text>
  </g>
  <g
     inkscape:groupmode="layer"
     id="layer3"
     inkscape:label="Leute"
     style="display:inline;opacity:1"
     transform="translate(0,-19.78125)">
    <g
       id="g5074"
       clip-path="url(#clipPath5114)"
       transform="matrix(1.1024884,0,0,1.134636,-103.67874,-6.2542527)">
      <path
         d="m 175.911,147.88293 c 0.13108,10.00389 -6.33715,18.32482 -14.44721,18.57437 -8.10829,0.24157 -14.79788,-7.68009 -14.93603,-17.68599 -0.13109,-9.99789 6.33714,-18.31881 14.44542,-18.56838 8.10829,-0.24155 14.79967,7.6821 14.93782,17.68 z"
         style="display:inline;opacity:1;fill:#b7c4c8;fill-opacity:1;fill-rule:evenodd;stroke:none"
         id="path7164"
         inkscape:connector-curvature="0"
         transform="translate(-2.375,29.0625)" />
      <path
         d="m 175.911,147.88293 c 0.13108,10.00389 -6.33715,18.32482 -14.44721,18.57437 -8.10829,0.24157 -14.79788,-7.68009 -14.93603,-17.68599 -0.13109,-9.99789 6.33714,-18.31881 14.44542,-18.56838 8.10829,-0.24155 14.79967,7.6821 14.93782,17.68 z"
         style="display:inline;opacity:1;fill:none;stroke:#000000;stroke-width:2.20455503;stroke-linecap:butt;stroke-linejoin:round;stroke-miterlimit:4;stroke-dasharray:none;stroke-opacity:1"
         id="path7166"
         inkscape:connector-curvature="0"
         transform="translate(-2.375,29.0625)" />
      <path
         transform="translate(-2.375,29.0625)"
         d="m 133.58956,195.89001 c 0.0974,-1.99639 -2.58764,-12.91462 4.05415,-27.10891 10.1079,-15.3622 42.22401,-16.50813 48.0493,-1.2158 5.82527,15.28433 5.36832,26.69368 4.15155,28.722 -3.74242,3.40783 -6.39914,4.48387 -10.16989,5.59187 0,0 -1.15656,-16.52608 -2.53273,-22.34354 -0.055,-0.20163 1.72331,8.88192 2.53273,22.34354 -0.68543,13.35783 -1.38503,25.63959 -1.38503,25.63959 -11.4221,2.06026 -21.86121,2.7071 -32.84229,0.61689 -1.13352,-1.4973 -3.96381,-19.6125 -4.38534,-27.52818 -0.4357,-9.13944 1.12113,-22.13193 1.12113,-22.13193 -0.35955,0.47514 -1.48775,17.75585 -0.99715,22.00617 -2.91175,0.52305 -6.9659,-3.53959 -7.59643,-4.5917 z"
         style="display:inline;opacity:1;fill:#b7c4c8;fill-opacity:1;fill-rule:evenodd;stroke:none"
         id="path7168"
         inkscape:connector-curvature="0" />
      <path
         d="m 133.58956,195.89001 c 0.0974,-1.99639 -2.58764,-12.91462 4.05415,-27.10891 10.1079,-15.3622 42.22401,-16.50813 48.0493,-1.2158 5.82527,15.28433 5.36832,26.69368 4.15155,28.722 -3.74242,3.40783 -6.39914,4.48387 -10.16989,5.59187 0,0 -1.15656,-16.52608 -2.53273,-22.34354 -0.055,-0.20163 1.72331,8.88192 2.53273,22.34354 -0.68543,13.35783 -1.38503,25.63959 -1.38503,25.63959 -11.4221,2.06026 -21.86121,2.7071 -32.84229,0.61689 -1.13352,-1.4973 -3.96381,-19.6125 -4.38534,-27.52818 -0.4357,-9.13944 1.12113,-22.13193 1.12113,-22.13193 -0.35955,0.47514 -1.48775,17.75585 -0.99715,22.00617 -2.91175,0.52305 -6.9659,-3.53959 -7.59643,-4.5917 z"
         style="display:inline;opacity:1;fill:none;stroke:#000000;stroke-width:2.20455503;stroke-linecap:butt;stroke-linejoin:round;stroke-miterlimit:4;stroke-dasharray:none;stroke-opacity:1"
         id="path7170"
         inkscape:connector-curvature="0"
         transform="translate(-2.375,29.0625)" />
      <g
         transform="matrix(1.8385482,0,0,1.8385482,-327.30292,-580.35164)"
         id="g3759"
         style="display:inline;opacity:1">
        <path
           d="m 362.21398,396.21293 c 0.0975,6.265 -4.4725,11.47499 -10.195,11.62624 -5.7225,0.15625 -10.445,-4.805 -10.5375,-11.06875 -0.0975,-6.265 4.4725,-11.47499 10.195,-11.62624 5.7225,-0.15125 10.445,4.805 10.5375,11.06875 z"
           style="fill:#c8c4b7;fill-opacity:1;fill-rule:evenodd;stroke:none"
           id="path6275"
           inkscape:connector-curvature="0" />
        <path
           d="m 362.21398,396.21293 c 0.0975,6.265 -4.4725,11.47499 -10.195,11.62624 -5.7225,0.15625 -10.445,-4.805 -10.5375,-11.06875 -0.0975,-6.265 4.4725,-11.47499 10.195,-11.62624 5.7225,-0.15125 10.445,4.805 10.5375,11.06875 z"
           style="fill:none;stroke:#000000;stroke-width:1.46548748;stroke-linecap:butt;stroke-linejoin:round;stroke-miterlimit:4;stroke-dasharray:none;stroke-opacity:1"
           id="path6277"
           inkscape:connector-curvature="0" />
        <path
           d="m 332.34524,426.27168 c 0.0688,-1.25 -1.825,-8.08626 2.86625,-16.97251 7.13374,-9.62374 29.79999,-10.33749 33.91124,-0.76625 4.1075,9.57501 3.785,16.71875 2.93,17.98751 -2.64125,2.12875 -4.51625,2.80375 -7.1825,3.49625 0,0 -0.815,-10.34125 -1.7875,-13.98876 -0.0388,-0.1225 1.22125,5.56625 1.7875,13.99376 -0.48375,8.35999 -0.97625,16.05 -0.97625,16.05 -8.0575,1.28875 -15.43,1.69875 -23.17874,0.39 -0.80125,-0.9375 -2.79375,-12.285 -3.09125,-17.23625 -0.3125,-5.72251 0.79125,-13.8575 0.79125,-13.8575 -0.25875,0.29375 -1.05,11.11374 -0.7075,13.775 -2.05625,0.3325 -4.9125,-2.2125 -5.3625,-2.87125 z"
           style="fill:#c8c4b7;fill-opacity:1;fill-rule:evenodd;stroke:none"
           id="path6279"
           inkscape:connector-curvature="0" />
        <path
           d="m 332.34524,426.27168 c 0.0688,-1.25 -1.825,-8.08626 2.86625,-16.97251 7.13374,-9.62374 29.79999,-10.33749 33.91124,-0.76625 4.1075,9.57501 3.785,16.71875 2.93,17.98751 -2.64125,2.12875 -4.51625,2.80375 -7.1825,3.49625 0,0 -0.815,-10.34125 -1.7875,-13.98876 -0.0388,-0.1225 1.22125,5.56625 1.7875,13.99376 -0.48375,8.35999 -0.97625,16.05 -0.97625,16.05 -8.0575,1.28875 -15.43,1.69875 -23.17874,0.39 -0.80125,-0.9375 -2.79375,-12.285 -3.09125,-17.23625 -0.3125,-5.72251 0.79125,-13.8575 0.79125,-13.8575 -0.25875,0.29375 -1.05,11.11374 -0.7075,13.775 -2.05625,0.3325 -4.9125,-2.2125 -5.3625,-2.87125 z"
           style="fill:none;stroke:#000000;stroke-width:1.46548748;stroke-linecap:butt;stroke-linejoin:round;stroke-miterlimit:4;stroke-dasharray:none;stroke-opacity:1"
           id="path6281"
           inkscape:connector-curvature="0" />
      </g>
      <g
         transform="matrix(1.8385482,0,0,1.8385482,-331.12737,-582.64631)"
         id="g3743"
         style="display:inline;opacity:1">
        <path
           inkscape:connector-curvature="0"
           id="path7160"
           style="fill:#b3b3b3;fill-opacity:1;fill-rule:nonzero;stroke:none"
           d="m 273.89257,453.86538 1.27153,0 0,-26.36115 -1.27153,0 0,26.36115 z" />
        <path
           inkscape:connector-curvature="0"
           id="path7162"
           style="fill:none;stroke:#260d00;stroke-width:3.14993787;stroke-linecap:butt;stroke-linejoin:miter;stroke-miterlimit:4;stroke-dasharray:none;stroke-opacity:1"
           d="m 273.89257,453.86538 1.27153,0 0,-26.36115 -1.27153,0 0,26.36115 z" />
        <path
           inkscape:connector-curvature="0"
           id="path6301"
           style="fill:#c8c4b7;fill-opacity:1;fill-rule:evenodd;stroke:none"
           d="m 294.35937,405.10512 c 0.0756,5.09161 -3.56349,9.32673 -8.12439,9.45167 -4.56563,0.12487 -8.32574,-3.90893 -8.40058,-9.00053 -0.0814,-5.0916 3.56334,-9.32674 8.12439,-9.45166 4.5609,-0.12488 8.32678,3.90476 8.40058,9.00052 z" />
        <path
           inkscape:connector-curvature="0"
           id="path6303"
           style="fill:none;stroke:#000000;stroke-width:1.18000007;stroke-linecap:butt;stroke-linejoin:round;stroke-miterlimit:4;stroke-dasharray:none;stroke-opacity:1"
           d="m 294.35937,405.10512 c 0.0756,5.09161 -3.56349,9.32673 -8.12439,9.45167 -4.56563,0.12487 -8.32574,-3.90893 -8.40058,-9.00053 -0.0814,-5.0916 3.56334,-9.32674 8.12439,-9.45166 4.5609,-0.12488 8.32678,3.90476 8.40058,9.00052 z" />
        <path
           inkscape:connector-curvature="0"
           id="path6305"
           style="fill:#c8c4b7;fill-opacity:1;fill-rule:evenodd;stroke:none"
           d="m 270.55125,429.53869 c 0.053,-1.01333 -1.4525,-6.57133 2.2834,-13.79368 5.68585,-7.8248 23.75099,-8.40502 27.02605,-0.62466 3.28155,7.78176 3.02147,13.58824 2.34112,14.62377 -2.1104,1.73098 -3.60438,2.27789 -5.7257,2.84147 0,0 -0.65097,-8.40364 -1.4243,-11.37003 -0.034,-0.10275 0.96818,4.52246 1.4243,11.37558 -0.38689,6.80037 -0.77792,13.05242 -0.77792,13.05242 -6.4239,1.04525 -12.29898,1.37701 -18.47506,0.31371 -0.64062,-0.76485 -2.22569,-9.98746 -2.46791,-14.01576 -0.24784,-4.65296 0.63429,-11.26315 0.63429,-11.26315 -0.20754,0.23875 -0.84124,9.03384 -0.56507,11.1979 -1.63701,0.27069 -3.91465,-1.80037 -4.2732,-2.33757 z" />
        <path
           inkscape:connector-curvature="0"
           id="path6307"
           style="fill:none;stroke:#000000;stroke-width:1.17990994;stroke-linecap:butt;stroke-linejoin:round;stroke-miterlimit:4;stroke-dasharray:none;stroke-opacity:1"
           d="m 270.55125,429.53869 c 0.053,-1.01333 -1.4525,-6.57133 2.2834,-13.79368 5.68585,-7.8248 23.75099,-8.40502 27.02605,-0.62466 3.28155,7.78176 3.02147,13.58824 2.34112,14.62377 -2.1104,1.73098 -3.60438,2.27789 -5.7257,2.84147 0,0 -0.65097,-8.40364 -1.4243,-11.37003 -0.034,-0.10275 0.96818,4.52246 1.4243,11.37558 -0.38689,6.80037 -0.77792,13.05242 -0.77792,13.05242 -6.4239,1.04525 -12.29898,1.37701 -18.47506,0.31371 -0.64062,-0.76485 -2.22569,-9.98746 -2.46791,-14.01576 -0.24784,-4.65296 0.63429,-11.26315 0.63429,-11.26315 -0.20754,0.23875 -0.84124,9.03384 -0.56507,11.1979 -1.63701,0.27069 -3.91465,-1.80037 -4.2732,-2.33757 z" />
      </g>
      <path
         d="m 264.07797,121.31248 c 0.17006,11.51619 -8.22521,21.08585 -18.74654,21.37313 -10.52039,0.27808 -19.20156,-8.83195 -19.38014,-20.35045 -0.17227,-11.51851 8.22223,-21.09734 18.74354,-21.38461 10.52156,-0.27809 19.20158,8.84343 19.38314,20.36193 z"
         style="display:inline;opacity:1;fill:#ac9d93;fill-opacity:1;fill-rule:evenodd;stroke:none"
         id="path6313"
         inkscape:connector-curvature="0"
         transform="translate(-2.375,29.0625)" />
      <path
         d="m 264.07797,121.31248 c 0.17006,11.51619 -8.22521,21.08585 -18.74654,21.37313 -10.52039,0.27808 -19.20156,-8.83195 -19.38014,-20.35045 -0.17227,-11.51851 8.22223,-21.09734 18.74354,-21.38461 10.52156,-0.27809 19.20158,8.84343 19.38314,20.36193 z"
         style="display:inline;opacity:1;fill:#ac9393;stroke:#000000;stroke-width:2.69436932;stroke-linecap:butt;stroke-linejoin:round;stroke-miterlimit:4;stroke-dasharray:none;stroke-opacity:1"
         id="path6315"
         inkscape:connector-curvature="0"
         transform="translate(-2.375,29.0625)" />
      <path
         d="m 207.70854,179.12561 c 0.1355,-2.29818 -3.35835,-14.86696 5.26974,-31.20475 13.11574,-17.68684 54.78827,-19.006 62.34701,-1.4019 7.55873,17.59723 6.9658,30.72904 5.38694,33.06399 -4.85606,3.92301 -8.30334,5.16173 -13.19618,6.43722 0,0 -1.50071,-19.01518 -3.2864,-25.72129 -0.0805,-0.23212 2.23613,10.22693 3.2864,25.73048 -0.8894,15.36797 -1.79718,29.5087 -1.79718,29.5087 -14.82054,2.36943 -28.3665,3.11404 -42.61525,0.70784 -1.48027,-1.72364 -5.14312,-22.57737 -5.69076,-31.68967 -0.57455,-10.5211 1.45521,-25.46849 1.45521,-25.46849 -0.47573,0.53777 -1.93094,20.43316 -1.29342,25.326 -3.77868,0.59983 -9.03922,-4.07698 -9.86611,-5.28813 z"
         style="display:inline;opacity:1;fill:#ac9393;fill-opacity:1;fill-rule:evenodd;stroke:none"
         id="path6317"
         inkscape:connector-curvature="0"
         transform="translate(-2.375,29.0625)" />
      <path
         d="m 207.70854,179.12561 c 0.1355,-2.29818 -3.35835,-14.86696 5.26974,-31.20475 13.11574,-17.68684 54.78827,-19.006 62.34701,-1.4019 7.55873,17.59723 6.9658,30.72904 5.38694,33.06399 -4.85606,3.92301 -8.30334,5.16173 -13.19618,6.43722 0,0 -1.50071,-19.01518 -3.2864,-25.72129 -0.0805,-0.23212 2.23613,10.22693 3.2864,25.73048 -0.8894,15.36797 -1.79718,29.5087 -1.79718,29.5087 -14.82054,2.36943 -28.3665,3.11404 -42.61525,0.70784 -1.48027,-1.72364 -5.14312,-22.57737 -5.69076,-31.68967 -0.57455,-10.5211 1.45521,-25.46849 1.45521,-25.46849 -0.47573,0.53777 -1.93094,20.43316 -1.29342,25.326 -3.77868,0.59983 -9.03922,-4.07698 -9.86611,-5.28813 z"
         style="display:inline;opacity:1;fill:none;stroke:#000000;stroke-width:2.69436932;stroke-linecap:butt;stroke-linejoin:round;stroke-miterlimit:4;stroke-dasharray:none;stroke-opacity:1"
         id="path6319"
         inkscape:connector-curvature="0"
         transform="translate(-2.375,29.0625)" />
      <g
         id="g6321"
         transform="matrix(1.9117824,0,0,-1.9034769,131.48307,463.63834)"
         style="display:inline;opacity:1">
        <path
           inkscape:connector-curvature="0"
           id="path6323"
           style="fill:#ac9d93;fill-opacity:1;fill-rule:evenodd;stroke:none"
           d="m 87.011737,151.91638 c 0.079,-5.012 -3.578,-9.18 -8.156,-9.301 -4.578,-0.125 -8.355,3.844 -8.43,8.855 -0.078,5.012 3.579,9.18 8.157,9.301 4.578,0.125 8.355,-3.844 8.429,-8.855 z" />
        <path
           inkscape:connector-curvature="0"
           id="path6325"
           style="fill:none;stroke:#000000;stroke-width:1.17238998;stroke-linecap:butt;stroke-linejoin:round;stroke-miterlimit:4;stroke-dasharray:none;stroke-opacity:1"
           d="m 87.011737,151.91638 c 0.079,-5.012 -3.578,-9.18 -8.156,-9.301 -4.578,-0.125 -8.355,3.844 -8.43,8.855 -0.078,5.012 3.579,9.18 8.157,9.301 4.578,0.125 8.355,-3.844 8.429,-8.855 z" />
        <path
           inkscape:connector-curvature="0"
           id="path6327"
           style="fill:#ac9d93;fill-opacity:1;fill-rule:evenodd;stroke:none"
           d="m 63.117738,127.87338 c 0.055,0.996 -1.4611,6.468 2.293,13.574 5.706999,7.699 23.839999,8.269 27.124999,0.613 3.289,-7.66 3.031,-13.371 2.348,-14.39 -2.114,-1.704 -3.614,-2.243 -5.747,-2.797 0,0 -0.652,8.273 -1.429,11.191 -0.032,0.098 0.976,-4.453 1.429,-11.195 -0.386,-6.688 -0.781,-12.83999 -0.781,-12.83999 -6.445,-1.031 -12.344,-1.356 -18.543,-0.309 -0.64,0.75 -2.234,9.82499 -2.472,13.78899 -0.249999,4.575 0.632,11.082 0.632,11.082 -0.207,-0.234 -0.839,-8.89 -0.566,-11.019 -1.644999,-0.266 -3.929999,1.773 -4.288999,2.301 z" />
        <path
           inkscape:connector-curvature="0"
           id="path6329"
           style="fill:none;stroke:#000000;stroke-width:1.17238998;stroke-linecap:butt;stroke-linejoin:round;stroke-miterlimit:4;stroke-dasharray:none;stroke-opacity:1"
           d="m 63.117738,127.87338 c 0.055,0.996 -1.4611,6.468 2.293,13.574 5.706999,7.699 23.839999,8.269 27.124999,0.613 3.289,-7.66 3.031,-13.371 2.348,-14.39 -2.114,-1.704 -3.614,-2.243 -5.747,-2.797 0,0 -0.652,8.273 -1.429,11.191 -0.032,0.098 0.976,-4.453 1.429,-11.195 -0.386,-6.688 -0.781,-12.83999 -0.781,-12.83999 -6.445,-1.031 -12.344,-1.356 -18.543,-0.309 -0.64,0.75 -2.234,9.82499 -2.472,13.78899 -0.249999,4.575 0.632,11.082 0.632,11.082 -0.207,-0.234 -0.839,-8.89 -0.566,-11.019 -1.644999,-0.266 -3.929999,1.773 -4.288999,2.301 z" />
      </g>
      <g
         transform="matrix(1.8385482,0,0,1.8385482,-327.30292,-580.35164)"
         id="g3751"
         style="display:inline;opacity:1">
        <path
           d="m 386.13523,451.48167 1.6499,0 0,-30.34624 -1.6499,0 0,30.34624 z"
           style="fill:#b3b3b3;fill-opacity:1;fill-rule:nonzero;stroke:none"
           id="path6271"
           inkscape:connector-curvature="0" />
        <path
           d="m 386.13523,451.48167 1.6499,0 0,-30.34624 -1.6499,0 0,30.34624 z"
           style="fill:none;stroke:#260d00;stroke-width:3.84980011;stroke-linecap:butt;stroke-linejoin:miter;stroke-miterlimit:4;stroke-dasharray:none;stroke-opacity:1"
           id="path6273"
           inkscape:connector-curvature="0" />
        <path
           d="m 384.21148,403.17167 c 0.0925,6.26375 -4.4725,11.47375 -10.19625,11.63 -5.7225,0.15125 -10.44375,-4.80875 -10.54125,-11.07375 -0.0925,-6.26 4.4725,-11.47 10.195,-11.62625 5.7225,-0.15125 10.445,4.81 10.5425,11.07 z"
           style="fill:#b7c4c8;fill-opacity:1;fill-rule:evenodd;stroke:none"
           id="path6291"
           inkscape:connector-curvature="0" />
        <path
           d="m 384.21148,403.17167 c 0.0925,6.26375 -4.4725,11.47375 -10.19625,11.63 -5.7225,0.15125 -10.44375,-4.80875 -10.54125,-11.07375 -0.0925,-6.26 4.4725,-11.47 10.195,-11.62625 5.7225,-0.15125 10.445,4.81 10.5425,11.07 z"
           style="fill:none;stroke:#000000;stroke-width:1.46548748;stroke-linecap:butt;stroke-linejoin:round;stroke-miterlimit:4;stroke-dasharray:none;stroke-opacity:1"
           id="path6293"
           inkscape:connector-curvature="0" />
        <path
           d="m 354.34273,433.23043 c 0.0687,-1.25 -1.82625,-8.08625 2.86125,-16.97376 7.13375,-9.61875 29.8,-10.33624 33.91125,-0.76125 4.11125,9.57 3.78875,16.71376 2.93,17.98375 -2.64125,2.13376 -4.51625,2.8075 -7.1775,3.50125 0,0 -0.81625,-10.3475 -1.7875,-13.99 -0.0387,-0.12625 1.21625,5.56125 1.7875,13.99 -0.48375,8.36375 -0.9775,16.05375 -0.9775,16.05375 -8.06125,1.29 -15.42875,1.695 -23.17875,0.38625 -0.8,-0.9375 -2.7975,-12.28 -3.095,-17.23625 -0.3075,-5.7225 0.79125,-13.8575 0.79125,-13.8575 -0.25375,0.2975 -1.05,11.1175 -0.70375,13.77875 -2.055,0.3275 -4.91625,-2.21625 -5.36125,-2.875 z"
           style="fill:#b7c4c8;fill-opacity:1;fill-rule:evenodd;stroke:none"
           id="path6295"
           inkscape:connector-curvature="0" />
        <path
           d="m 354.34273,433.23043 c 0.0687,-1.25 -1.82625,-8.08625 2.86125,-16.97376 7.13375,-9.61875 29.8,-10.33624 33.91125,-0.76125 4.11125,9.57 3.78875,16.71376 2.93,17.98375 -2.64125,2.13376 -4.51625,2.8075 -7.1775,3.50125 0,0 -0.81625,-10.3475 -1.7875,-13.99 -0.0387,-0.12625 1.21625,5.56125 1.7875,13.99 -0.48375,8.36375 -0.9775,16.05375 -0.9775,16.05375 -8.06125,1.29 -15.42875,1.695 -23.17875,0.38625 -0.8,-0.9375 -2.7975,-12.28 -3.095,-17.23625 -0.3075,-5.7225 0.79125,-13.8575 0.79125,-13.8575 -0.25375,0.2975 -1.05,11.1175 -0.70375,13.77875 -2.055,0.3275 -4.91625,-2.21625 -5.36125,-2.875 z"
           style="fill:none;stroke:#000000;stroke-width:1.46548748;stroke-linecap:butt;stroke-linejoin:round;stroke-miterlimit:4;stroke-dasharray:none;stroke-opacity:1"
           id="path6297"
           inkscape:connector-curvature="0" />
      </g>
      <path
         inkscape:connector-curvature="0"
         id="path6283"
         style="display:inline;opacity:1;fill:#c8b7b7;fill-opacity:1;fill-rule:evenodd;stroke:none"
         d="m 412.83823,152.30405 c 0.12649,9.14677 -6.14075,16.75147 -13.98676,16.9675 -7.846,0.22292 -14.32688,-7.01177 -14.45328,-16.16082 -0.13569,-9.13761 6.13156,-16.7423 13.97756,-16.96522 7.8552,-0.22523 14.32689,7.00946 14.46248,16.15854 z"
         transform="translate(-2.375,29.0625)" />
      <path
         inkscape:connector-curvature="0"
         id="path6285"
         style="display:inline;opacity:1;fill:none;stroke:#000000;stroke-width:2.07388711;stroke-linecap:butt;stroke-linejoin:round;stroke-miterlimit:4;stroke-dasharray:none;stroke-opacity:1"
         d="m 412.83823,152.30405 c 0.12649,9.14677 -6.14075,16.75147 -13.98676,16.9675 -7.846,0.22292 -14.32688,-7.01177 -14.45328,-16.16082 -0.13569,-9.13761 6.13156,-16.7423 13.97756,-16.96522 7.8552,-0.22523 14.32689,7.00946 14.46248,16.15854 z"
         transform="translate(-2.375,29.0625)" />
      <path
         inkscape:connector-curvature="0"
         id="path6287"
         style="display:inline;opacity:1;fill:#c8b7b7;fill-opacity:1;fill-rule:evenodd;stroke:none"
         d="m 371.86618,196.1764 c 0.0987,-1.82244 -2.50502,-11.80578 3.9322,-24.76984 9.78567,-14.04879 40.86403,-15.08988 46.51067,-1.12149 5.63745,13.97754 5.1893,24.39981 4.01263,26.25904 -3.61734,3.11404 -6.19361,4.09307 -9.84772,5.10887 0,0 -1.11232,-15.10136 -2.44987,-20.42397 -0.0552,-0.17926 1.66849,8.12408 2.44987,20.42397 -0.65498,12.20798 -1.33754,23.43001 -1.33754,23.43001 -11.05198,1.8845 -21.1594,2.47743 -31.7885,0.56536 -1.09624,-1.36512 -3.83338,-17.92816 -4.24705,-25.15364 -0.42057,-8.35852 1.08704,-20.22633 1.08704,-20.22633 -0.34932,0.42974 -1.43636,16.22059 -0.96064,20.10912 -2.81987,0.47571 -6.74287,-3.24044 -7.36109,-4.20108 z"
         transform="translate(-2.375,29.0625)" />
      <path
         inkscape:connector-curvature="0"
         id="path6289"
         style="display:inline;opacity:1;fill:none;stroke:#000000;stroke-width:2.07388711;stroke-linecap:butt;stroke-linejoin:round;stroke-miterlimit:4;stroke-dasharray:none;stroke-opacity:1"
         d="m 371.86618,196.1764 c 0.0987,-1.82244 -2.50502,-11.80578 3.9322,-24.76984 9.78567,-14.04879 40.86403,-15.08988 46.51067,-1.12149 5.63745,13.97754 5.1893,24.39981 4.01263,26.25904 -3.61734,3.11404 -6.19361,4.09307 -9.84772,5.10887 0,0 -1.11232,-15.10136 -2.44987,-20.42397 -0.0552,-0.17926 1.66849,8.12408 2.44987,20.42397 -0.65498,12.20798 -1.33754,23.43001 -1.33754,23.43001 -11.05198,1.8845 -21.1594,2.47743 -31.7885,0.56536 -1.09624,-1.36512 -3.83338,-17.92816 -4.24705,-25.15364 -0.42057,-8.35852 1.08704,-20.22633 1.08704,-20.22633 -0.34932,0.42974 -1.43636,16.22059 -0.96064,20.10912 -2.81987,0.47571 -6.74287,-3.24044 -7.36109,-4.20108 z"
         transform="translate(-2.375,29.0625)" />
    </g>
  </g>
</svg>
