<?xml version="1.0" encoding="UTF-8" standalone="no"?>
<svg
   xmlns:dc="http://purl.org/dc/elements/1.1/"
   xmlns:cc="http://creativecommons.org/ns#"
   xmlns:rdf="http://www.w3.org/1999/02/22-rdf-syntax-ns#"
   xmlns:svg="http://www.w3.org/2000/svg"
   xmlns="http://www.w3.org/2000/svg"
   viewBox="0 0 2500.0005 2000"
   height="2000"
   width="2500.0005"
   version="1.1"
   id="svg2">
  <metadata
     id="metadata8">
    <rdf:RDF>
      <cc:Work
         rdf:about="">
        <dc:format>image/svg+xml</dc:format>
        <dc:type
           rdf:resource="http://purl.org/dc/dcmitype/StillImage" />
        <dc:title></dc:title>
      </cc:Work>
    </rdf:RDF>
  </metadata>
  <defs
     id="defs6" />
  <g
     transform="translate(-29.661016,0)"
     id="g3338">
    <path
       id="path3348"
       d="m 29.661016,1000 0,-1000 1249.999984,0 1250,0 0,1000 0,1000 -1250,0 -1249.999984,0 0,-1000 z"
       style="fill:#fcfcfc" />
    <path
       id="path3346"
       d="m 29.661016,1000 0,-1000 1249.999984,0 1250,0 0,1000 0,1000 -1250,0 -1249.999984,0 0,-1000 z M 1014.161,934.97537 c 7.7454,-2.9352 15.4316,-7.85431 21.0475,-13.47022 l 4.4703,-4.47035 4.4918,-6.94358 4.4918,-6.94359 2.9874,-7.46074 c 1.6431,-4.1034 3.9431,-11.22412 5.1111,-15.82381 l 2.1238,-8.36308 0.5035,-16.74792 0.5035,-16.74792 -1.1844,-8.25208 c -3.4531,-24.05845 -11.6576,-45.75505 -24.8379,-65.68307 l -5.5762,-8.431 -8.0661,-8.13102 -8.0661,-8.13102 -6,-4.04955 c -3.3,-2.22725 -8.40563,-5.26629 -11.34587,-6.75342 l -5.34588,-2.70387 -7.56408,-1.93457 -7.56408,-1.93456 -6.29081,0 -6.29082,0 -5.29922,1.09697 -5.29922,1.09698 -7,3.33573 -7,3.33572 -5.70335,5.10571 -5.70335,5.1057 -4.89187,7.31396 -4.89187,7.31395 -3.21476,7.72221 c -1.76812,4.24721 -4.0854,11.12634 -5.1495,15.28695 l -1.93474,7.56475 -1.15373,11.38004 -1.15373,11.38004 1.16298,12.73112 1.16297,12.73112 2.00887,8.49953 c 2.78865,11.79876 6.57785,23.0295 11.06721,32.80188 l 3.81403,8.30236 6.41673,9.69764 6.41673,9.69764 5.3611,5.92663 5.3611,5.92663 7.39826,5.87912 7.39825,5.87912 6.99491,3.52257 6.9949,3.52258 7.11943,1.92921 7.11943,1.9292 9.5,-0.38296 9.49998,-0.38295 6,-2.27378 z m -34.99998,-55.37752 c -2.2,-0.69759 -6.02388,-2.30846 -8.49752,-3.5797 l -4.49751,-2.31134 -5.50249,-5.68229 -5.50248,-5.68229 -3.42329,-5.75563 -3.42328,-5.75564 -2.79725,-7.9047 -2.79725,-7.9047 -1.03152,-8.30098 -1.03152,-8.30098 0.97213,-7.4598 c 1.1963,-9.17998 2.02207,-12.03332 5.42727,-18.75316 l 2.67301,-5.27494 3.91267,-3.91267 c 2.15197,-2.15197 5.39551,-4.67948 7.20788,-5.61669 l 3.2952,-1.70401 6.62421,-0.47396 6.62421,-0.47396 5.10246,1.69476 5.10245,1.69476 5.62497,4.1674 5.62497,4.16739 4.55756,6.01264 4.5576,6.01264 3.2599,7 c 1.7929,3.85 3.9773,9.77481 4.8544,13.16624 l 1.5946,6.16624 0.615,7.33376 0.6151,7.33376 -1.1635,7.5 -1.1635,7.5 -3.1331,6.8104 -3.1331,6.8104 -5.3807,4.91766 -5.38075,4.91767 -5.12492,1.52193 -5.12491,1.52194 -3.0685,-0.0669 c -1.68768,-0.0368 -4.8685,-0.63765 -7.0685,-1.33525 z"
       style="fill:#685685" />
    <path
       id="path3344"
       d="m 426.32943,1997.75 c 7.94575,-8.8634 792.24287,-914.8755 797.12097,-920.826 3.4158,-4.1668 6.2106,-7.8896 6.2106,-8.273 l 0,-0.6971 -2.25,1.3984 -2.25,1.3984 -28,1.639 c -113.6745,6.6539 -216.04272,10.6049 -274.49998,10.5947 l -28.5,-0.01 -12,-1.0196 c -30.73569,-2.6114 -54.7269,-8.9924 -71.82723,-19.1039 l -6.82724,-4.037 -6.87773,-6.4881 -6.87772,-6.4881 -3.76112,-5.6663 c -2.06862,-3.1166 -5.21939,-9.0437 -7.00172,-13.1714 l -3.24059,-7.505 -2.95215,-11.5 c -1.62369,-6.325 -4.60646,-19.6 -6.62838,-29.5 -3.72393,-18.23356 -4.91425,-22.65086 -11.18295,-41.5 l -3.49201,-10.5 -5.37027,-11 -5.37027,-11 -7.11644,-10.91566 c -9.12309,-13.99358 -16.65586,-23.17433 -27.17667,-33.1222 l -8.42071,-7.95714 -7.38422,-4.94482 -7.38423,-4.94481 -7.8352,-3.38749 -7.83521,-3.38749 -11.71897,-2.84504 c -6.44543,-1.56478 -20.71897,-4.72689 -31.71897,-7.02692 l -20,-4.18188 -10.06886,-3.28977 -10.06886,-3.28976 -9.03744,-4.53887 -9.03743,-4.53887 -7.46926,-5.93555 -7.46926,-5.93555 -5.2098,-6.87659 -5.2098,-6.87659 -3.38495,-7 c -1.86172,-3.85 -4.34757,-9.925 -5.52412,-13.5 l -2.13916,-6.5 -1.65268,-11.17229 -1.65267,-11.17228 1.18908,-9.4145 1.18907,-9.41451 1.98266,-6.37029 c 1.09046,-3.50366 1.88834,-6.44966 1.77307,-6.54668 -0.11527,-0.097 -113.15959,31.48366 -251.20959,70.17928 -138.05,38.69562 -251.112504,70.36818 -251.250004,70.38347 -0.1375,0.0153 -0.25,-188.9722 -0.25,-419.9722 l 0,-420 1249.999984,0 1250,0 0,1000 0,1000 -1052.6743,0 -1052.67431,0 2.01704,-2.25 z m 2094.33157,-552.6485 0,-200.8985 -6.75,-0.5723 c -3.7125,-0.3148 -12.9375,-0.8566 -20.5,-1.204 l -13.75,-0.6316 0,202.1025 0,202.1024 20.5,0 20.5,0 0,-200.8985 z m -1069,-251.1015 0,-67 -15.5,0 -15.5,0 0,67 0,67 15.5,0 15.5,0 0,-67 z m -439.7245,-122.0094 c 55.4183,-1.9335 132.3338,-5.6454 189.4408,-9.1422 l 19.2164,-1.1767 18.114,-23.8971 18.1141,-23.897 2.2834,-6.7134 c 1.2558,-3.6924 3.3444,-10.97735 4.6413,-16.18882 l 2.3579,-9.47538 0.028,-19.5 0.028,-19.5 -2.3714,-9 -2.3714,-9 -3.6587,-8.5 -3.6588,-8.5 -7.1607,-12.09912 c -3.9383,-6.65452 -10.6205,-16.77952 -14.8491,-22.5 l -7.6879,-10.40088 -11.6207,-11.52552 -11.6207,-11.52551 -7.5,-5.61796 -7.5,-5.61796 -0.291,0.76657 c -0.1601,0.42162 3.6026,28.83618 8.3616,63.14348 4.759,34.30729 8.8801,64.70233 9.158,67.54453 l 0.5054,5.16763 -1.1804,6.77829 -1.1804,6.77829 -2.6272,5.55408 -2.6271,5.55408 -4.7979,4.67383 -4.7979,4.67383 -5.5491,2.07614 -5.549,2.0762 -143.7125,-0.021 -143.71248,-0.021 -6.68719,-2.3603 -6.68718,-2.36039 -6.93225,-4.60855 -6.93225,-4.60855 -6.45919,-6.84709 -6.4592,-6.84708 -3.73668,-6.15125 c -2.05518,-3.38318 -4.85544,-8.90452 -6.22281,-12.26963 l -2.48612,-6.11838 -22.52619,-111.14329 C 800.64255,778.51448 789.82523,724.69178 788.99347,720.03728 l -1.5123,-8.46272 1.06174,-7.13862 1.06174,-7.13862 1.97966,-4.61836 1.97966,-4.61836 4.25838,-4.61979 4.25838,-4.6198 5.04014,-2.66051 5.04015,-2.6605 104.35789,-0.2681 104.35789,-0.26811 -0.6682,-3.73189 c -0.3675,-2.05255 -1.957,-6.52222 -3.5323,-9.93261 l -2.8641,-6.20071 -4.4972,-4.49727 -4.4973,-4.49727 -7.03686,-3.5437 -7.03685,-3.5437 -7.29148,-1.99775 c -4.01032,-1.09876 -11.79149,-2.7207 -17.29149,-3.6043 l -10,-1.60655 -26,-0.521 -26,-0.52101 -45,1.11599 c -24.75,0.61379 -68.5125,1.41486 -97.25,1.78015 l -52.25,0.66417 0,1.12673 c 0,0.6197 0.6697,3.69788 1.48822,6.84039 0.81852,3.14251 8.03867,40.92455 16.04479,83.9601 37.95386,204.01475 50.05493,265.96895 56.00811,286.74644 l 2.43543,8.5 4.05517,8.2399 4.05517,8.24 5.70656,6.1816 5.70655,6.1817 7.20958,4.7183 7.20958,4.7182 7.47567,3.1121 c 14.53331,6.0503 34.02933,10.1736 57.10517,12.0777 l 11,0.9076 44.27546,-0.4509 c 24.3515,-0.2479 56.9765,-0.894 72.50002,-1.4356 z m -200.5164,-37.4135 c -7.54969,-2.6945 -12.39886,-7.6069 -14.75134,-14.9437 l -1.23979,-3.8666 0.45908,-4.7777 0.45908,-4.7778 2.71222,-4.628 2.71222,-4.62808 4.1217,-2.72761 4.12169,-2.72761 8.14606,0 8.14606,0 4.16843,2.75854 4.16843,2.75854 2.70127,4.08192 2.70127,4.0819 0.42996,5.944 0.42995,5.9441 -1.69838,4.4471 -1.69839,4.4472 -4.36512,3.8423 -4.36513,3.8424 -3.92519,1.176 c -5.00351,1.4991 -8.73411,1.4305 -13.43408,-0.2469 z m 405.2409,-0.116 c -4.2981,-1.9298 -8.6596,-5.9708 -10.7508,-9.9611 l -1.5722,-3 0,-5.5 0,-5.5 1.6104,-3.1016 1.6104,-3.1015 3.5345,-3.1033 3.5345,-3.10338 3.9171,-1.17358 3.917,-1.17358 4.517,0.67737 4.517,0.67736 3.9499,2.86125 3.9498,2.86126 2.2515,4.6509 2.2514,4.6509 -0.4539,5.474 -0.454,5.474 -2.9148,4.1259 -2.9148,4.1259 -3.8653,1.9969 -3.8653,1.9969 -4.6347,0.3584 -4.6347,0.3583 -3.5,-1.5713 z M 749.16102,678.65371 c -1.65,-0.75701 -4.3005,-2.67628 -5.89,-4.26505 l -2.89,-2.88866 -1.36,-3.21788 -1.36,-3.21788 0,-5.33634 0,-5.33634 2.94839,-4.64913 2.94839,-4.64912 4.15178,-2.11808 4.15179,-2.11809 5.51708,0 5.51707,0 4.55511,2.82143 4.55511,2.82143 2.40555,4.5 2.40556,4.5 -0.36776,6.13142 -0.36775,6.13141 -2.36999,3.45876 -2.36998,3.45876 -3.45876,2.36998 -3.45876,2.36999 -6.13141,0.30488 -6.13142,0.30489 -3,-1.37638 z M 1485.661,997.5 l 0,-65.5 -10,0 -10,0 0,65.5 0,65.5 10,0 10,0 0,-65.5 z m -473.8553,-61.48959 6.3553,-1.98959 5,-2.89916 c 2.75,-1.59453 7.1497,-4.79824 9.7772,-7.11935 l 4.7772,-4.22019 4.3533,-6.14106 c 10.9522,-15.44991 16.5536,-32.787 18.1529,-56.18556 l 0.6804,-9.9555 -1.1882,-11 c -2.177,-20.15262 -6.5936,-36.24982 -14.6516,-53.40017 l -4.4166,-9.40017 -5.6897,-8.59983 -5.6897,-8.59983 -9.5526,-9.55364 -9.5526,-9.55363 -7.738,-4.79241 -7.73805,-4.79241 -7.26196,-2.57468 -7.26197,-2.57468 -9.39896,-0.45507 -9.39896,-0.45507 -5.60104,1.22265 -5.60104,1.22266 -6.26121,3.04594 -6.26122,3.04594 -6.49068,5.94753 -6.49068,5.94753 -5.01233,7.63505 -5.01234,7.63505 -3.07171,7.96522 -3.07172,7.96522 -2.08523,9.0594 -2.08522,9.0594 -0.0788,17.5 -0.0788,17.5 1.8654,10 1.8654,10 3.7594,11.52069 3.7594,11.52069 4.75313,9.46406 c 2.61423,5.20524 6.98976,12.77859 9.7234,16.82967 l 4.97026,7.36561 7.15181,7.5441 7.1518,7.5441 6.5,4.93544 6.5,4.93543 7.03104,3.38457 c 3.86707,1.8615 9.49207,4.04594 12.5,4.85429 l 5.46896,1.46973 9.14466,0.0658 9.14466,0.0658 6.3553,-1.98959 z m -37.14468,-58.21319 -5.5,-2.09857 -7.76141,-7.73953 -7.76142,-7.73952 -4.38955,-9.3598 -4.38956,-9.3598 -1.59903,-7.19741 -1.59903,-7.1974 0,-8.50337 0,-8.50338 1.13027,-5.29922 c 0.62165,-2.91457 2.15759,-7.62941 3.41321,-10.47741 l 2.28295,-5.17819 4.29184,-4.6561 4.29183,-4.65609 4.04495,-2.13288 4.04495,-2.13287 7.51457,-0.0328 7.51458,-0.0328 6.63155,3.26152 6.63155,3.26153 5.89569,6.30252 5.89574,6.30251 4.2397,8.14924 4.2397,8.14924 2.0188,7.78672 2.0189,7.78672 0.018,10.5 0.018,10.5 -1.564,5.7805 c -2.051,7.57988 -4.8197,12.87713 -9.3669,17.92148 l -3.7067,4.11186 -5.00003,2.33331 -5,2.33331 -6.5,-0.0423 -6.5,-0.0423 -5.5,-2.09857 z M 1551.661,595.79216 c 209.825,-106.75935 381.8729,-194.43228 382.3287,-194.82873 l 0.8287,-0.72083 -7.5025,-28.71173 c -4.1263,-15.79146 -7.7214,-28.9307 -7.989,-29.19832 -0.2676,-0.26762 -190.8769,80.40014 -423.5762,179.26169 l -423.0897,179.74827 0,2.13457 c 0,1.17402 0.9236,4.86948 2.0524,8.21215 l 2.0525,6.07757 5.0639,8.8666 5.0639,8.8666 5.3516,6.57219 c 12.8821,15.82005 35.6019,31.55006 62.9157,43.55951 l 12,5.27622 1.5,-0.50393 c 0.825,-0.27716 173.175,-87.85248 383,-194.61183 z m -90.5356,-122.17757 425.962,-170.38541 -12.026,-6.02846 -12.026,-6.02845 -436.9372,159.43096 C 1185.7827,538.29026 988.48602,610.32177 987.66102,610.67326 l -1.5,0.63906 4.74279,0.75991 c 2.60854,0.41795 7.64424,1.72545 11.19049,2.90555 l 6.4476,2.14564 5.8179,3.76028 5.8179,3.76027 4.3458,4.92802 4.3458,4.92801 2.4127,4.75 c 1.327,2.6125 2.7431,4.75 3.147,4.75 0.4039,0 192.4172,-76.67344 426.6964,-170.38541 z"
       style="fill:#594a71" />
    <path
       id="path3342"
       d="m 425.66102,1999.4679 c 0,-0.2927 178.60829,-206.7365 396.90731,-458.764 372.69197,-430.2752 409.35117,-472.7536 408.62827,-473.4945 -0.1559,-0.1599 -1.8028,0.5711 -3.6596,1.6244 l -3.376,1.915 -29.5,1.6541 c -79.9808,4.4847 -122.4446,6.5204 -182,8.7248 l -31.49998,1.166 -49,0.1031 -49,0.1032 -13,-1.7764 c -29.4694,-4.0268 -50.22388,-11.023 -66.09428,-22.2798 l -6.09427,-4.3226 -5.15385,-5.6391 -5.15385,-5.6392 -3.35319,-5.7213 c -1.84425,-3.1468 -4.60624,-8.8489 -6.13774,-12.6715 l -2.78455,-6.9501 -3.2705,-13 c -1.79877,-7.15 -4.9652,-21.55 -7.03651,-32 -2.07131,-10.45 -4.05858,-19.225 -4.41616,-19.5 -0.35758,-0.275 -1.45428,-3.425 -2.43712,-7 -11.65912,-42.40924 -44.71778,-87.26199 -76.60883,-103.94 l -7.54085,-3.94363 -7.89436,-2.57697 -7.89435,-2.57698 -22.0648,-4.53813 c -42.53347,-8.74799 -57.44846,-13.84108 -73.16012,-24.98235 l -6.09534,-4.32226 -7.04522,-7.54395 -7.04522,-7.54396 -4.55924,-8.82752 -4.55924,-8.82752 -2.45873,-8.48458 -2.45874,-8.48458 -1.16096,-9.7235 -1.16097,-9.72349 0.66181,-5.73029 c 0.81329,-7.0419 3.12131,-17.77416 4.62632,-21.51235 l 1.12006,-2.78207 -0.50282,-0.50283 -0.50283,-0.50282 -250.08191,70.03489 C 144.29761,807.4843 31.288304,839 30.710879,839 l -1.049863,0 0,-419.5 0,-419.5 1249.999984,0 1250,0 0,1000 0,1000 -1052,0 -1051.99998,0 0,-0.5321 z m 2094.99998,-554.38 0,-200.9121 -3.75,-0.5434 c -2.0625,-0.2988 -11.2875,-0.8363 -20.5,-1.1943 l -16.75,-0.651 0,202.1064 0,202.1065 20.5,0 20.5,0 0,-200.9121 z m -1069,-251.0879 0,-67 -15.5,0 -15.5,0 0,67 0,67 15.5,0 15.5,0 0,-67 z M 982.66102,1072.9827 c 60.80508,-1.6891 131.84788,-4.8593 202.99998,-9.0586 l 34.5,-2.0361 1.6167,-1.694 c 0.8892,-0.9317 9.2915,-11.882 18.6718,-24.334 l 17.055,-22.6399 2.4921,-7.8892 c 3.2645,-10.33376 5.4362,-21.03547 6.7108,-33.06867 l 1.034,-9.76223 -0.6048,-7.5 c -0.873,-10.82555 -3.1219,-22.61139 -5.8334,-30.57107 -4.9396,-14.50055 -16.7124,-35.17957 -30.1845,-53.01899 l -8.3751,-11.09007 -12.3497,-11.90993 -12.3498,-11.90994 -6.1916,-4.31387 -6.1915,-4.31387 0,1.81387 c 0,1.70668 14.561,108.72579 17.0933,125.64348 l 1.172,7.82962 -1.1797,7.17038 -1.1798,7.17039 -2.5044,5.5 -2.5044,5.5 -4.1992,4.33419 -4.1993,4.33418 -5,2.66582 -5,2.66581 -144,0.2672 -143.99998,0.2673 -6.5,-1.9753 -6.5,-1.97533 -5.96867,-3.60066 C 862.73886,990.38447 857.26,985.67466 851.11657,978.2267 l -5.33789,-6.47137 -3.58316,-6.81877 C 835.73374,952.63691 839.22069,968.11564 806.61803,807 l -18.11084,-89.5 0.0356,-7.5 0.0356,-7.5 1.44041,-4.74002 c 0.79223,-2.60701 2.59361,-6.70779 4.00306,-9.11284 l 2.56265,-4.37284 3.73742,-3.28149 3.73742,-3.2815 4.5508,-2.10565 4.55087,-2.10566 104.15169,-0.5 104.15169,-0.5 -2.3853,-7.5 -2.3853,-7.5 -3.7836,-5 -3.7837,-5 -6.2717,-4.21555 -6.27183,-4.21555 -9.21097,-2.93763 -9.21098,-2.93764 -10.18852,-1.60782 -10.18851,-1.60781 -18.81149,-0.91477 -18.81148,-0.91477 -29.5,0.8549 c -16.225,0.47019 -63.5875,1.42696 -105.25,2.12616 l -75.75,1.27127 0,1.40526 c 0,0.77289 0.67423,4.0072 1.49829,7.18734 0.82406,3.18015 6.24697,31.3701 12.05092,62.64435 40.09048,216.02534 53.8558,286.65806 60.06725,308.21756 l 2.49061,8.6447 3.53725,7.1926 3.53726,7.1926 4.65921,5.3608 c 2.56256,2.9485 6.68421,7.0321 9.15921,9.0747 l 4.5,3.7139 8.5,4.3563 8.5,4.3562 8,2.6111 c 13.28195,4.3349 31.78762,7.5582 51.5,8.9701 2.475,0.1772 16.65,0.4002 31.5,0.4953 l 27,0.1731 36.5,-1.014 z m -169.76441,-37.9113 c -1.79542,-0.4536 -5.03304,-1.9951 -7.19472,-3.4257 l -3.93032,-2.6009 -2.55124,-4.3534 -2.55123,-4.3533 -0.60712,-4.4294 -0.60711,-4.4294 1.15688,-4.2963 1.15688,-4.2963 3.6962,-4.09967 3.69619,-4.09963 4,-1.82174 4,-1.82174 5.54424,-0.022 5.54423,-0.022 5.41233,3.25 5.41232,3.25 2.79344,5.36418 2.79344,5.3642 -0.006,4.1358 c -0.003,2.2747 -0.44381,5.7108 -0.97944,7.6358 l -0.97387,3.5 -3.11728,3.779 -3.11728,3.779 -3.90008,1.9897 -3.90007,1.9897 -4.2532,0.4294 -4.2532,0.4293 -3.26441,-0.8247 z m 404.26439,-0.5091 -4,-1.4555 -3.7231,-4.1517 -3.7232,-4.1518 -0.6487,-3.4578 -0.6487,-3.4579 0.4789,-4.9832 0.4788,-4.9831 2.999,-3.7107 2.999,-3.7106 3.3859,-1.98333 3.3859,-1.98334 5.5081,0.0125 5.5081,0.0124 4.1612,2.3551 4.1611,2.35507 1.9165,2.6158 c 2.4953,3.4057 4.2612,8.6145 4.2612,12.5687 l 0,3.1544 -2.5967,5.2109 -2.5966,5.2108 -4.2343,2.4815 -4.2343,2.4814 -4.4191,0.5129 -4.419,0.5129 -4,-1.4554 z M 749.66816,678.40702 c -4.59964,-1.99466 -7.75082,-5.02742 -10.21225,-9.82847 l -2.01047,-3.92144 0.41484,-5.73508 0.41484,-5.73508 2.35277,-3.43365 2.35278,-3.43365 3.32958,-2.28147 3.32958,-2.28147 4.44812,-0.50136 4.44812,-0.50137 3.62214,0.67952 3.62214,0.67951 4.09321,3.6935 4.0932,3.69349 1.34713,3.21788 1.34713,3.21788 0,4.57196 0,4.57196 -1.90268,3.71016 c -2.40568,4.69099 -5.61427,7.69255 -10.32885,9.66243 L 760.72526,680 l -3.78212,-0.0391 -3.78212,-0.0391 -3.49286,-1.5147 z M 1485.661,998 l 0,-66 -10,0 -10,0 0,66 0,66 10,0 10,0 0,-66 z m -473.8553,-61.98959 6.3553,-1.98959 5,-2.89916 c 2.75,-1.59453 7.1497,-4.79824 9.7772,-7.11935 l 4.7772,-4.22019 4.3549,-6.14106 c 8.2256,-11.59941 13.793,-25.46652 16.7179,-41.64106 l 1.3563,-7.5 -0.054,-15.5 -0.054,-15.5 -2.2193,-11.2554 -2.2193,-11.2554 -3.0152,-9.22704 c -1.6584,-5.07487 -5.0228,-13.46501 -7.4765,-18.64477 l -4.4612,-9.41773 -5.5572,-8.35195 -5.5572,-8.35195 -7.908,-8.35424 -7.908,-8.35425 -7.5077,-5.19009 c -8.75645,-6.05333 -15.69915,-9.3936 -24.00658,-11.55005 L 976.24082,722 l -8.5399,0.0245 -8.5399,0.0244 -4.5,1.0364 c -2.475,0.57002 -7.425,2.45222 -11,4.18268 l -6.5,3.14627 -8,8.04288 -8,8.04288 -3.41686,5.82391 -3.41685,5.82391 -3.25531,8.67609 -3.2553,8.67609 -1.82784,8.5 -1.82784,8.5 0.0376,18 0.0376,18 1.78945,9 c 0.9842,4.95 3.37617,13.95 5.3155,20 l 3.52605,11 4.75838,9.65713 c 2.61711,5.31142 6.94651,12.96142 9.62089,17 l 4.8625,7.34287 8.97968,9.30859 8.97967,9.30858 6.69262,4.44925 c 7.97362,5.30085 15.40182,8.81233 22.90009,10.82538 l 5.5,1.47658 9.14466,0.0658 9.14469,0.0658 6.3553,-1.98959 z m -35.25505,-57.48018 c -1.9857,-0.73087 -5.36914,-2.43911 -7.51874,-3.7961 l -3.90838,-2.46725 -5.51406,-5.95585 -5.51407,-5.95585 -3.61853,-6.92759 -3.61852,-6.92759 -2.18899,-7 -2.18899,-7 -0.54065,-10.52564 -0.54066,-10.52565 1.0874,-5.07036 c 0.59807,-2.78869 2.0312,-7.59289 3.18473,-10.67598 l 2.09733,-5.60563 4.58369,-5.09816 4.58368,-5.09816 4.11256,-2.17703 4.11257,-2.17703 7.52103,-0.0232 7.52102,-0.0232 6.6251,3.26152 6.6251,3.26153 6.0945,6.51504 6.09453,6.51505 4.4204,9.22343 4.4204,9.22343 1.5889,6.56389 1.589,6.56389 -0.012,10.43611 -0.012,10.43611 -1.396,5.24407 c -1.9048,7.15496 -4.9193,13.12377 -9.0874,17.99323 l -3.4976,4.08617 -5.19395,2.58826 -5.19398,2.58827 -6.55365,-0.0705 -6.55366,-0.0705 -3.61037,-1.32885 z M 1550.8186,596.39616 c 210.2883,-107.03212 382.7441,-194.98137 383.2352,-195.44278 l 0.8928,-0.83893 -7.516,-28.80723 -7.516,-28.80722 -1.8768,0.0947 c -1.3898,0.0701 -826.3611,350.05573 -842.734,357.52125 l -2.8573,1.3028 0.6087,4.54063 0.6087,4.54063 4.4411,9.2202 c 5.4155,11.24342 10.7216,19.18447 18.258,27.3246 l 5.7128,6.17052 8.0817,6.31067 c 9.6089,7.50316 20.9907,14.67742 32.5658,20.52704 7.83,3.957 23.5888,10.80397 25.0953,10.90352 0.3616,0.0239 172.7116,-87.52828 383,-194.56039 z m 335.6983,-292.92934 c 0.1957,-0.18989 -5.0537,-3.05696 -11.6653,-6.37127 l -12.0211,-6.02602 -435.5644,158.95405 C 1187.7057,537.4483 990.23012,609.62095 988.43141,610.40724 l -3.27039,1.42961 2.85566,0.0816 c 1.57061,0.0449 5.58164,0.78795 8.91341,1.65129 l 6.05771,1.56973 7.0661,3.55838 7.066,3.55839 5.6484,5.77251 5.6484,5.77252 2.6795,5.47687 2.6796,5.47687 426.1926,-170.47146 c 234.4059,-93.7593 426.3527,-170.62682 426.5485,-170.81671 z"
       style="fill:#463561" />
    <path
       id="path3340"
       d="m 2422.7575,1638.4655 c -26.0719,-9.0049 -47.7809,-16.7499 -48.2422,-17.2112 l -0.8386,-0.8386 -0.2579,-60.9327 -0.2578,-60.9326 -419,-120.7223 c -230.45,-66.3972 -419.5625,-120.7461 -420.25,-120.7752 l -1.25,-0.053 0,10 0,10 -74.928,0 -74.9281,0 -0.5318,-5.25 c -0.2925,-2.8875 -0.7779,-25.275 -1.0787,-49.75 -0.3007,-24.475 -0.8398,-59.6875 -1.1979,-78.25 l -0.6512,-33.75 22.1579,0 22.1578,0 0,-13.5 0,-13.5 -12.4921,0 -12.4922,0 -0.2578,-59.527 -0.2579,-59.52708 -81.4943,50.09338 c -44.8218,27.5514 -83.7878,51.4057 -86.591,53.0095 l -5.0967,2.916 -23.409,1.503 c -55.8619,3.5867 -140.8303,7.6298 -200.409,9.5362 l -31.99998,1.0239 -40,0.082 -40,0.082 -11,-1.1267 c -26.45167,-2.7093 -44.89214,-7.3365 -61,-15.3065 l -8,-3.9583 -7.08853,-5.3824 -7.08854,-5.3825 -4.49939,-5.7677 c -11.72263,-15.0272 -16.76572,-30.2151 -26.39291,-79.48534 l -3.85272,-19.71754 -0.82606,1.21754 -0.82605,1.21754 0.49822,-4 0.49823,-4 -0.57905,1.98159 -0.57905,1.9816 -3.37018,-9.32194 c -8.97605,-24.82777 -24.83986,-50.89313 -42.19187,-69.32419 l -6.7021,-7.11888 -8.93716,-6.91784 -8.93715,-6.91784 -9.06285,-4.39789 -9.06284,-4.39789 -9.5,-2.50713 c -5.225,-1.37891 -17.375,-4.11929 -27,-6.08972 -32.93438,-6.74232 -45.11083,-10.41318 -60.16449,-18.13788 l -8.66449,-4.44614 -6.83551,-5.72487 -6.83551,-5.72487 -5.23627,-6.95053 -5.23627,-6.95052 -3.52982,-7.23887 -3.52983,-7.23886 -2.73248,-9.77866 -2.73249,-9.77867 0.0533,-15.5 0.0533,-15.5 2.81275,-8.5 c 3.50107,-10.58004 6.9921,-17.51293 13.34396,-26.5 l 4.94744,-7 8.39319,-8.28248 8.39318,-8.28247 9,-6.4176 c 10.1685,-7.25081 22.35167,-14.17233 30.5,-17.3277 3.025,-1.1714 226,-79.35532 495.50002,-173.74205 l 490,-171.61222 24,-2.35634 c 58.1881,-5.71293 134.5033,-11.56328 177,-13.56886 l 25,-1.17984 25,0.5645 25,0.56451 8.4652,1.56137 c 10.9415,2.01813 16.9137,3.99022 25.5348,8.4319 l 7,3.60646 7.5,7.53221 7.5,7.53222 4.6597,7.98819 c 5.8568,10.04042 10.6737,21.662 15.2878,36.88419 l 3.6011,11.88038 4.4206,22.11181 c 7.98,39.91593 13.4502,77.08485 15.4696,105.11182 l 1.0087,14 0.015,17.11737 0.015,17.11736 -1.0414,8.38264 c -1.5789,12.70926 -3.7178,22.31697 -7.51,33.73433 l -3.4382,10.3517 -4.4632,9.29907 -4.4631,9.29906 -7.2083,10.84924 -7.2084,10.84923 -13.0722,13.05971 -13.0723,13.0597 -8.5,6.03253 c -4.675,3.31789 -37.3,23.6481 -72.5,45.17824 -35.2,21.53014 -118.45,72.5832 -185,113.45124 l -121,74.30552 -0.255,96.70653 -0.2549,96.70653 -13.9951,0 -13.995,0 0,13.4797 0,13.4797 20.75,0.2703 20.75,0.2703 0.5,17.4706 0.5,17.4706 417.5,120.2446 c 229.625,66.1345 418.7375,120.521 420.25,120.8588 l 2.75,0.6143 0,-71.5341 0,-71.5342 3.25,-0.5489 c 1.7875,-0.302 23.275,-2.8423 47.75,-5.6452 l 44.5,-5.0962 30.25,1.254 30.25,1.2541 0,209.3458 0,209.3458 -28.4182,0 c -15.63,0 -29.0175,0.1885 -29.75,0.419 l -1.3318,0.4189 -47.4035,-16.3724 z m 98.6559,-193.7155 -0.2524,-201.25 -11,-0.6445 c -6.05,-0.3545 -15.3875,-0.8543 -20.75,-1.1107 l -9.75,-0.4661 0,202.3606 0,202.3607 21.0024,0 21.0025,0 -0.2525,-201.25 z M 1452.661,1193.5 l 0,-67.5 -16,0 -16,0 0,67.5 0,67.5 16,0 16,0 0,-67.5 z M 998.16102,1072.9934 c 73.91698,-2.3923 221.66548,-9.8069 223.02718,-11.1925 0.1627,-0.1655 8.4467,-11.1009 18.4089,-24.3009 l 18.113,-24 2.5491,-8 c 1.402,-4.4 3.4257,-12.05 4.4971,-17 l 1.948,-9 0.6121,-12 0.612,-12 -1.175,-8.78079 -1.1751,-8.78079 -2.4827,-8.71921 -2.4827,-8.71921 -5.9353,-12 -5.9352,-12 -7.9323,-12 -7.9323,-12 -8.0579,-9.6096 c -4.4318,-5.28528 -11.3431,-12.6618 -15.3584,-16.39226 -7.2712,-6.75544 -23.8457,-19.78628 -24.4273,-19.2047 -0.1681,0.1681 3.6063,28.18334 8.3875,62.25609 l 8.6931,61.95047 0.023,12 0.023,12 -3.0904,6.5 -3.0903,6.5 -2.8267,3.34294 c -1.5548,1.83862 -4.5518,4.43189 -6.6601,5.76282 l -3.8334,2.41984 -5.7096,1.4872 -5.7097,1.4872 -138.6534,0 -138.6534,0 -5.38649,-0.9938 -5.38649,-0.9937 -8.5,-4.15428 -8.5,-4.15424 -9.08991,-9.10199 -9.08991,-9.10199 -3.5114,-6.04988 c -1.93128,-3.32744 -4.6573,-8.95244 -6.05783,-12.5 L 835.86555,949.5 830.29842,922 c -3.06192,-15.125 -13.7226,-67.775 -23.69041,-117 l -18.12328,-89.5 0.47496,-8.20955 0.47496,-8.20955 2.98512,-6.37905 2.98511,-6.37905 3.79159,-3.79158 3.79159,-3.79159 5.58648,-2.61981 5.58648,-2.61982 103.75,-0.2725 103.74998,-0.2725 0,-0.82095 c 0,-1.54567 -3.7517,-11.72712 -5.7787,-15.68215 l -2.0253,-3.9519 -3.848,-3.86978 c -9.8911,-9.94712 -25.6399,-15.70238 -51.34798,-18.76467 l -10.5,-1.25073 -28,-0.0574 c -24.46095,-0.0502 -70.36776,0.72029 -182.1267,3.05659 l -29.12669,0.60889 1.89936,8.63855 c 1.04464,4.75121 8.43365,43.73856 16.42002,86.63856 28.26221,151.81489 43.85922,233.28049 49.96978,261 l 4.40886,19.99999 2.45885,7.2228 c 1.35237,3.9725 4.06655,10.2822 6.0315,14.0215 l 3.57265,6.7988 4.58493,5.2412 4.58493,5.2413 6.31774,4.5082 6.31773,4.5083 8.54675,4.0051 8.54676,4.0052 11.29676,2.9278 11.29677,2.9278 11,1.5288 c 16.09524,2.237 15.48611,2.2127 60,2.3934 l 41,0.1665 31,-1.0033 z m -188.5,-39.5877 c -4.52029,-1.958 -8.69192,-5.9507 -11.09158,-10.6159 l -1.90842,-3.7101 0,-5.572 0,-5.5719 1.54773,-3.7043 c 0.85125,-2.0373 2.53875,-4.7824 3.75,-6.1002 l 2.20227,-2.39599 5,-2.35789 5,-2.35788 3.38398,-0.01 c 1.86119,-0.005 5.09837,0.50387 7.19374,1.13166 l 3.80975,1.14143 3.58529,2.9553 3.58528,2.95529 2.1665,4.15328 2.1665,4.1533 0.0378,5.5591 0.0378,5.5591 -2.53212,4.9409 -2.53212,4.9409 -5.40698,3.25 -5.40698,3.25 -5.54423,-0.039 -5.54424,-0.039 -3.5,-1.516 z m 405.16828,-0.5514 -4.3318,-2.1442 -2.5909,-3.9152 -2.591,-3.9153 -0.4461,-5.3787 -0.446,-5.3788 2.2399,-4.627 2.2399,-4.6271 3.8605,-2.5548 3.8606,-2.55475 4.4558,-0.50224 4.4559,-0.50223 3.6506,0.68486 3.6506,0.68487 4.3018,4.30179 4.3018,4.3017 0.9961,4.6705 0.9961,4.6705 -0.9428,4.1958 -0.9427,4.1959 -2.5012,3.2793 -2.5013,3.2793 -3.9022,1.9907 -3.9022,1.9908 -4.7899,-8e-4 -4.7898,-8e-4 -4.3317,-2.1441 z M 751.21884,678.55311 c -2.16819,-0.79726 -5.06231,-2.28587 -6.43138,-3.30803 l -2.4892,-1.85846 -1.86549,-3.59471 c -1.02602,-1.97709 -2.11266,-5.11784 -2.41476,-6.97943 l -0.54926,-3.38473 1.12244,-4.1684 1.12243,-4.16841 2.68233,-3.18777 2.68233,-3.18777 4.04137,-1.83574 4.04137,-1.83574 4,0 4,0 4.04137,1.83574 4.04137,1.83574 2.6702,3.17336 2.6702,3.17335 1.03285,3.71894 c 1.77956,6.40758 0.80364,11.75355 -3.19316,17.49159 l -1.93126,2.77264 -3.82402,1.95087 -3.82402,1.95087 -3.84176,0.52782 -3.84177,0.52783 -3.94218,-1.44956 z M 1485.661,998 l 0,-66 -10.5,0 -10.5,0 0,66 0,66 10.5,0 10.5,0 0,-66 z M 758.66102,938.5 c 0,-0.275 -0.225,-0.5 -0.5,-0.5 -0.275,0 -0.5,0.225 -0.5,0.5 0,0.275 0.225,0.5 0.5,0.5 0.275,0 0.5,-0.225 0.5,-0.5 z m 254.49998,-2.66762 6,-2.00827 5.6413,-3.41843 5.6413,-3.41844 5.9656,-6.37721 5.9656,-6.37722 3.5918,-5.91284 c 1.9755,-3.25206 4.9908,-9.40647 6.7006,-13.67648 l 3.1087,-7.76365 2.122,-9.18992 2.122,-9.18992 0.051,-18 0.051,-18 -2.2172,-11.02363 -2.2171,-11.02363 -2.874,-8.47637 c -8.0856,-23.8467 -17.2323,-39.30278 -32.447,-54.82899 l -7.2052,-7.35262 -6.1597,-4.42074 -6.1597,-4.42074 -7.3403,-3.35161 c -4.03756,-1.84339 -9.81568,-3.95212 -12.84068,-4.68607 l -5.5,-1.33446 -8,0.0257 -8,0.0257 -7.04153,2.14914 -7.04152,2.14915 -6.2518,4.04073 -6.2518,4.04074 -4.50838,4.63878 c -6.10299,6.27952 -9.88471,11.95959 -14.43129,21.67553 l -3.82471,8.1733 -2.01297,7.70347 c -1.10713,4.23691 -2.55232,11.39212 -3.21152,15.90046 l -1.19856,8.19699 0.58161,15.59954 0.58162,15.59954 2.02793,9.27042 c 2.61643,11.96072 7.16445,25.47492 12.16279,36.14109 l 3.97233,8.47673 6.46219,9.70697 6.4622,9.70698 7.7617,7.90794 7.76171,7.90794 6,4.05411 c 3.3,2.22975 8.73598,5.43354 12.07996,7.11952 l 6.07997,3.06542 5.92003,1.50673 c 8.77874,2.2343 11.22444,2.48742 18.92002,1.9582 l 7,-0.48139 6,-2.00828 z m -35.6558,-57.22606 c -2.0107,-0.71824 -5.67936,-2.49176 -8.15257,-3.94116 l -4.49676,-2.63528 -5.55118,-6.13425 -5.55118,-6.13425 -3.98578,-8.13069 -3.98578,-8.13069 -1.60826,-6 -1.60826,-6 -0.55818,-10 -0.55817,-10 1.62566,-6.89697 1.62567,-6.89698 3.15743,-5.92395 3.15744,-5.92396 4.4857,-3.94847 4.4857,-3.94847 5.47387,-1.5913 5.47386,-1.59129 5.05054,0.66997 5.05054,0.66998 5.56276,2.6189 5.56277,2.6189 6.07367,6.07182 6.07371,6.07182 3.809,6.83335 3.809,6.83335 2.4742,7.66665 2.4743,7.66665 0.5187,11 0.5188,11 -1.1582,5.56499 -1.1582,5.56499 -2.9215,6.17767 -2.9216,6.17767 -4.5383,4.41075 -4.5384,4.41074 -4.6857,1.59659 -4.68576,1.5966 -5.07186,-0.0439 -5.07186,-0.0439 -3.65582,-1.30589 z m 574.7317,-282.48876 c 210.0582,-106.91035 382.2312,-194.66035 382.6065,-195 l 0.6823,-0.61756 -7.5516,-29 c -4.1533,-15.95 -7.8354,-29.31355 -8.1823,-29.69678 l -0.6308,-0.69678 -423,179.72956 -423,179.72957 0.039,5.15532 0.039,5.15531 5.1296,10.3119 5.1296,10.3119 4.9395,6.5 4.9394,6.5 7.9973,7.62264 7.9974,7.62265 7.3942,5.20317 c 10.48,7.37453 25.3778,15.64404 38.298,21.25854 l 11.0963,4.82189 2.0759,-0.26444 2.0759,-0.26445 381.9241,-194.38244 z m -90.5759,-122.0807 c 234.025,-93.6234 425.6641,-170.38376 425.8646,-170.57858 0.2006,-0.19482 -5.2629,-3.1574 -12.1411,-6.58352 l -12.5059,-6.22931 -433.8588,158.31972 c -238.6223,87.07584 -436.33378,159.26178 -439.35878,160.4132 l -5.5,2.09349 6.57029,1.19212 c 3.61365,0.65567 9.17044,2.10601 12.34839,3.22297 l 5.7781,2.03085 4.874,3.12764 4.874,3.12764 5.3912,5.8231 5.3912,5.8231 1.8864,4.63073 1.8864,4.63072 1.5,-0.40975 c 0.825,-0.22537 192.975,-77.01072 427,-170.63412 z"
       style="fill:#000000" />
  </g>
</svg>
