<?xml version="1.0" encoding="UTF-8" standalone="no"?>
<!-- Created with Inkscape (http://www.inkscape.org/) -->

<svg
   xmlns:dc="http://purl.org/dc/elements/1.1/"
   xmlns:cc="http://creativecommons.org/ns#"
   xmlns:rdf="http://www.w3.org/1999/02/22-rdf-syntax-ns#"
   xmlns:svg="http://www.w3.org/2000/svg"
   xmlns="http://www.w3.org/2000/svg"
   version="1.1"
   width="100%"
   height="100%"
   viewBox="0 0 850.4 176.1"
   id="Ebene_1"
   xml:space="preserve"><metadata
     id="metadata19"><rdf:RDF><cc:Work
         rdf:about=""><dc:format>image/svg+xml</dc:format><dc:type
           rdf:resource="http://purl.org/dc/dcmitype/StillImage" /><dc:title></dc:title></cc:Work></rdf:RDF></metadata><defs
     id="defs17" /><path
     d="m 131.90625,0 c -10.6,0 -21.1,4.9937494 -31.5,15.09375 -1.5,1.7 -7.11875,8.3 -8.21875,10 -9.151645,15.498418 -19.47249,31.824525 -27.5,45.3125 -1.1,1.6 -3.68125,8.3 -4.28125,10 l -0.09375,0 c -1.8,10.1 2.475,15.094231 12.875,15.09375 l 84.40625,0 -27.53125,45.3125 -108.46875,0 L 0,176 l 120.5,0 c 10.7,0 21.1,-4.99375 31.5,-15.09375 l -0.0937,0 c 1.4,-1.7 7.1,-8.39375 8,-10.09375 13.95327,-22.20458 28.26687,-45.98998 40.09375,-65.40625 1.1,-1.6 1.99375,-3.3 2.59375,-5 1.9,-10 -0.70625,-20.09375 -11.40625,-20.09375 l -84.28125,0 15.5,-25.125 108.5,0 L 243.1875,15.09375 252.5,0 z m 135,0 c -7.1796,11.74042 -14.38535,23.464756 -21.59375,35.1875 l 56.5625,0 L 215.6875,176 l 36.21875,0 C 280.82228,129.27411 309.38412,82.163522 338.0625,35.1875 L 390,35.1875 411.59375,0 z m 159.1875,0 -86.28125,140.8125 -6.21875,10 c -1,1.7 -3.29375,8.39375 -4.09375,10.09375 -2,10.1 2.30625,15.09375 12.90625,15.09375 l 96.5,0 c 10.6,0 21.10625,-4.99375 31.40625,-15.09375 1.4,-1.7 7.1,-8.39375 8,-10.09375 l 6.1875,-10 C 513.22061,93.869763 541.95679,46.936553 570.6875,0 L 534.59375,0 448.3125,140.8125 376,140.8125 462.1875,0 z m 378.5,0 -175.2813,176.09375 41,0 40,-40.28125 68,0 -9.21875,40.28125 41,0 L 850.40625,0 z m -5.90625,47 -12.375,53.59375 -41,0 z"
     id="path5"
     style="fill:#19161a" /><path
     d="m 585.1875,0 -107.875,176 36.1875,0 c 16.59347,-26.68315 32.92284,-53.55202 49.34375,-80.40625 l 70.78125,0 L 585.8125,176 622,176 665.1875,105.59375 c 1.1,-1.6 3.525,-8.3 4.125,-10 l 0,-0.09375 c 1.9666,-10.069198 -0.55723,-20.09375 -11.125,-20.09375 19.61728,0.973887 25.71341,-8.511381 32.625,-15.09375 1.2,-1.6 7.0875,-8.3 8.1875,-10 l 15.40625,-25.21875 c 1,-1.7 1.9875,-3.3 2.6875,-5 C 723.09375,4.2937495 716.3875,0 705.6875,0 z m 14.625,35.1875 72.28125,0 -15.59375,25.125 -72.3125,0 z"
     id="path7"
     style="fill:#f0ac2b" /></svg>
