<?xml version="1.0" encoding="UTF-8" standalone="no"?>
<!-- Created with Inkscape (http://www.inkscape.org/) -->

<svg
   xmlns:dc="http://purl.org/dc/elements/1.1/"
   xmlns:cc="http://creativecommons.org/ns#"
   xmlns:rdf="http://www.w3.org/1999/02/22-rdf-syntax-ns#"
   xmlns:svg="http://www.w3.org/2000/svg"
   xmlns="http://www.w3.org/2000/svg"
   xmlns:sodipodi="http://sodipodi.sourceforge.net/DTD/sodipodi-0.dtd"
   xmlns:inkscape="http://www.inkscape.org/namespaces/inkscape"
   width="210mm"
   height="297mm"
   viewBox="0 0 210 297"
   version="1.1"
   id="svg27"
   inkscape:version="0.92.1 r15371"
   sodipodi:docname="htw-stura-logo.svg">
  <defs
     id="defs21" />
  <sodipodi:namedview
     id="base"
     pagecolor="#ffffff"
     bordercolor="#666666"
     borderopacity="1.0"
     inkscape:pageopacity="0.0"
     inkscape:pageshadow="2"
     inkscape:zoom="0.49497475"
     inkscape:cx="249.52326"
     inkscape:cy="796.12438"
     inkscape:document-units="mm"
     inkscape:current-layer="layer1"
     showgrid="false"
     inkscape:window-width="1920"
     inkscape:window-height="1142"
     inkscape:window-x="0"
     inkscape:window-y="0"
     inkscape:window-maximized="1" />
  <metadata
     id="metadata24">
    <rdf:RDF>
      <cc:Work
         rdf:about="">
        <dc:format>image/svg+xml</dc:format>
        <dc:type
           rdf:resource="http://purl.org/dc/dcmitype/StillImage" />
        <dc:title></dc:title>
      </cc:Work>
    </rdf:RDF>
  </metadata>
  <g
     inkscape:label="Ebene 1"
     inkscape:groupmode="layer"
     id="layer1">
    <g
       id="g64">
      <path
         sodipodi:nodetypes="csccccscscscssscsccscccccccssc"
         inkscape:connector-curvature="0"
         id="path60"
         d="m 67.815229,130.23037 c 0.04851,-0.12835 2.588508,-4.35888 5.644445,-9.40119 l 5.556251,-9.16784 6.955265,0.0746 c 7.52668,0.0808 7.64991,0.10623 7.3175,1.51282 -0.26441,1.11883 -2.24337,4.19704 -3.32854,5.17743 -0.57371,0.51831 -1.38943,1.01165 -1.81271,1.09631 -0.74528,0.14905 -0.75647,0.17396 -0.35404,0.78815 0.648,0.98898 0.30301,1.91286 -2.317991,6.20743 l -2.408041,3.94564 h -1.8429 c -1.013592,0 -1.792206,-0.0893 -1.730248,-0.19844 0.06196,-0.10914 1.140547,-1.96013 2.396866,-4.1133 1.256318,-2.15318 2.284213,-4.02841 2.284213,-4.16719 0,-0.14803 -1.531725,-0.25233 -3.705902,-0.25233 h -3.705899 l -1.140937,1.78594 c -0.627515,0.98227 -1.832028,2.9468 -2.676697,4.36563 l -1.535761,2.5797 h -1.841535 c -1.012844,0 -1.801847,-0.10501 -1.753339,-0.23336 z m 19.252631,-12.5328 c 0.2057,-0.32742 0.60329,-0.98227 0.88353,-1.45521 l 0.50951,-0.85989 h -3.972191 -3.972187 l -0.816446,1.32689 c -0.449043,0.72979 -0.816443,1.38463 -0.816443,1.45521 0,0.0706 1.757296,0.12831 3.905105,0.12831 3.762532,0 3.918762,-0.0217 4.279122,-0.59531 z"
         style="fill:#f2ac2e;fill-opacity:1;stroke-width:1" />
      <path
         inkscape:connector-curvature="0"
         id="path40"
         d="m 16.366288,130.45424 c 0.05871,-0.10914 0.558911,-0.94258 1.111555,-1.85208 l 1.004807,-1.65365 h 5.855387 5.855386 l 1.377657,-2.3151 1.377657,-2.31511 -4.823254,-0.13229 c -2.65279,-0.0728 -4.972083,-0.22861 -5.153984,-0.34634 -0.674008,-0.43623 -0.301518,-1.7162 1.289288,-4.43032 3.233575,-5.5169 3.259101,-5.52861 12.072171,-5.53628 3.674402,-0.003 6.68073,0.0468 6.68073,0.1112 0,0.0644 -0.489548,0.8978 -1.087887,1.85209 l -1.087885,1.73507 -5.857428,2.7e-4 -5.857426,2.7e-4 -0.727604,1.29549 c -0.400182,0.71253 -0.727604,1.36725 -0.727604,1.45494 0,0.0877 2.205603,0.15945 4.90134,0.15945 h 4.90134 l 0.277591,0.7276 c 0.337595,0.88489 0.100187,1.40452 -2.870926,6.28385 -1.682263,2.76271 -2.343255,3.60881 -3.35887,4.29948 l -1.264445,0.8599 h -6.997172 c -3.848445,0 -6.949136,-0.0893 -6.890424,-0.19844 z m 23.435721,-0.25267 c 0.142597,-0.26121 2.172149,-3.63009 4.510119,-7.48639 l 4.250849,-7.01146 -2.995753,-0.13229 -2.995755,-0.13229 1.145265,-1.78594 1.145264,-1.78594 h 7.69042 c 4.22973,0 7.642932,0.0893 7.584893,0.19844 -0.05804,0.10914 -0.549937,0.94258 -1.093105,1.85208 l -0.987581,1.65365 -2.825113,0.006 -2.825115,0.006 -4.513144,7.46864 -4.513146,7.46864 -1.918682,0.0781 c -1.777193,0.0723 -1.899566,0.043 -1.659416,-0.39688 z m 12.037365,0.051 c -0.356003,-0.92773 0.311179,-2.25645 5.077947,-10.113 l 5.014076,-8.26415 1.912716,-0.004 1.912713,-0.004 -4.1299,6.81302 c -2.271446,3.74716 -4.293027,7.04787 -4.492404,7.33491 -0.199374,0.28704 -0.3625,0.61446 -0.3625,0.7276 0,0.11315 1.756172,0.2013 3.902605,0.1959 l 3.902604,-0.01 4.233334,-7.04913 c 2.328333,-3.87703 4.412022,-7.27201 4.630422,-7.5444 0.330259,-0.41192 0.694788,-0.48185 2.165959,-0.41553 l 1.768872,0.0797 -4.814967,7.9375 c -5.572824,9.18683 -5.536565,9.1342 -6.912102,10.03283 l -1.04515,0.68279 h -6.305341 c -5.383417,0 -6.327794,-0.0585 -6.458884,-0.40012 z m 41.318759,-8.66186 c 4.930601,-4.98409 9.141987,-9.21081 9.358627,-9.39271 0.25066,-0.21046 1.25268,-0.33073 2.75544,-0.33073 2.11615,0 2.34969,0.0481 2.24748,0.46302 -0.0627,0.25466 -0.99935,4.48113 -2.08138,9.39215 l -1.96732,8.92913 -2.20064,5.5e-4 c -1.973043,5e-4 -2.186133,-0.0473 -2.060352,-0.46246 0.274947,-0.90745 0.676291,-2.85187 0.682651,-3.30729 0.0058,-0.41887 -0.34099,-0.46302 -3.637759,-0.46302 h -3.644228 l -2.104253,2.11667 -2.104252,2.11666 h -2.104372 -2.104372 l 8.96473,-9.06198 z m 8.167957,-0.79375 c 0.62441,-2.83982 0.76743,-3.63802 0.65188,-3.63802 -0.0572,0 -1.34984,1.25015 -2.872612,2.77812 l -2.768671,2.77813 h 2.283819 2.283814 z"
         style="fill:#000000;stroke-width:1" />
    </g>
  </g>
</svg>
