<?xml version="1.0" encoding="UTF-8" standalone="no"?>
<svg
   xmlns:dc="http://purl.org/dc/elements/1.1/"
   xmlns:cc="http://creativecommons.org/ns#"
   xmlns:rdf="http://www.w3.org/1999/02/22-rdf-syntax-ns#"
   xmlns:svg="http://www.w3.org/2000/svg"
   xmlns="http://www.w3.org/2000/svg"
   xmlns:sodipodi="http://sodipodi.sourceforge.net/DTD/sodipodi-0.dtd"
   xmlns:inkscape="http://www.inkscape.org/namespaces/inkscape"
   version="1.1"
   height="88"
   width="88"
   id="svg2"
   inkscape:version="0.48.5 r10040"
   sodipodi:docname="Windows_logo_-_2012_derivative.svg">
  <metadata
     id="metadata16">
    <rdf:RDF>
      <cc:Work
         rdf:about="">
        <dc:format>image/svg+xml</dc:format>
        <dc:type
           rdf:resource="http://purl.org/dc/dcmitype/StillImage" />
      </cc:Work>
    </rdf:RDF>
  </metadata>
  <defs
     id="defs14" />
  <sodipodi:namedview
     pagecolor="#ffffff"
     bordercolor="#666666"
     borderopacity="1"
     objecttolerance="10"
     gridtolerance="10"
     guidetolerance="10"
     inkscape:pageopacity="0"
     inkscape:pageshadow="2"
     inkscape:window-width="1176"
     inkscape:window-height="923"
     id="namedview12"
     showgrid="false"
     inkscape:zoom="0.94816591"
     inkscape:cx="-398.88146"
     inkscape:cy="226.69368"
     inkscape:window-x="0"
     inkscape:window-y="0"
     inkscape:window-maximized="0"
     inkscape:current-layer="svg2" />
  <g
     id="g2993">
    <path
       id="path4"
       d="m0,12.402,35.687-4.8602,0.0156,34.423-35.67,0.20313z"
       style="fill:#f8682c;" />
    <path
       id="path6"
       d="m39.996,6.9059,47.318-6.906,0,41.527-47.318,0.37565z"
       style="fill:#91c300;" />
    <path
       id="path8"
       d="m35.67,45.931,0.0277,34.453-35.67-4.9041-0.002-29.78z"
       style="fill:#00b4f1;" />
    <path
       id="path10"
       d="m87.326,46.255-0.0111,41.34-47.318-6.6784-0.0663-34.739z"
       style="fill:#ffc300;" />
  </g>
  <path
     inkscape:connector-curvature="0"
     id="path3027"
     d="m -561.50077,114.56873 c -21.7718,-4.87275 -38.83261,-16.879248 -60.13573,-42.320377 -39.15136,-46.7563 -65.65135,-98.28665 -81.76729,-158.999999 -10.19148,-38.394214 -13.62623,-87.160124 -8.59286,-122.000004 4.04217,-27.97904 14.75374,-57.54783 28.47083,-78.59238 5.91264,-9.07108 6.80524,-10.23441 14.4396,-18.81908 25.38681,-28.54688 59.90772,-46.68145 96.58545,-50.73837 23.55266,-2.60516 42.82854,1.26957 80.5,16.18169 15.32923,6.06802 29.43533,9.96814 36.05314,9.96814 6.36779,0 20.35642,-4.03469 38.94686,-11.2333 40.01087,-15.49305 57.42691,-19.04088 83.15369,-16.93927 22.15333,1.8097 37.20335,5.60917 55.3463,13.97251 18.55019,8.55106 34.33462,20.36589 47,35.18004 10.59056,12.38732 10.50236,11.99797 3.76777,16.63172 -8.10865,5.57918 -9.49923,6.78241 -20.68995,17.90259 -28.55126,28.37129 -41.71807,61.45672 -40.33465,101.35255 0.74848,21.58516 5.65518,41.3039 14.58995,58.63316 2.2668,4.39652 4.0374,7.24803 11.33683,18.257714 8.89455,13.41561 32.54866,33.105629 50.69097,42.195899 7.67427,3.84523 7.69481,2.81349 -0.46536,23.37925 -9.62802,24.2651398 -18.95893,42.41304 -32.28922,62.80011 -32.79121,50.150159 -54.71917,71.785817 -81.10634,80.025167 -6.36174,1.98644 -9.47299,2.32567 -20.49999,2.23515 -15.42499,-0.12661 -25.22458,-2.271 -41.41967,-9.06362 -29.4167,-12.338088 -38.43192,-14.548258 -59.58033,-14.606698 -18.82177,-0.052 -30.27549,2.16029 -48,9.27128 -4.4,1.765258 -11.375,4.556628 -15.5,6.203058 -19.28613,7.69773 -40.08229,11.45465 -50.5,9.12307 z m 100.77359,-496.57038 c 0.48361,-13.1524 0.99947,-16.76303 3.7504,-26.25 11.94526,-41.19495 39.57603,-73.30435 78.2432,-90.92555 15.5464,-7.08472 40.96752,-13.2429 42.94108,-10.40232 1.5726,2.26345 0.12303,26.51181 -2.22804,37.2707 -12.88646,58.97062 -63.9633,105.49658 -115.87381,105.54962 l -7.39357,0.008 0.56074,-15.25 z"
     style="fill:#000000" />
</svg>
