<?xml version="1.0" encoding="utf-8"?>
<!-- Generator: Adobe Illustrator 14.0.0, SVG Export Plug-In . SVG Version: 6.00 Build 43363)  -->
<!DOCTYPE svg PUBLIC "-//W3C//DTD SVG 1.0//EN" "http://www.w3.org/TR/2001/REC-SVG-20010904/DTD/svg10.dtd">
<svg version="1.0" id="Ebene_1" xmlns="http://www.w3.org/2000/svg" xmlns:xlink="http://www.w3.org/1999/xlink" x="0px" y="0px"
	 width="521.552px" height="151.724px" viewBox="0 0 521.552 151.724" enable-background="new 0 0 521.552 151.724"
	 xml:space="preserve">
<g>
	<path fill="#433D32" d="M165.208,149.458h-6.006l-5.642-19.836c-0.179-0.684-0.447-1.909-0.544-3.133h-0.365
		c-0.093,1.225-0.364,2.45-0.539,3.181l-5.375,19.789h-6.006c-2.405-9.871-4.592-20.379-6.137-30.392
		c1.824-0.317,3.959-0.495,5.467-0.495l3.721,20.203c0.187,1.084,0.317,2.272,0.317,3.18h0.413c0.093-0.907,0.32-2.143,0.587-3.097
		l5.551-20.061h5.195l5.314,20.108c0.235,0.955,0.458,2.143,0.552,3.05h0.4c0.049-0.955,0.235-2.096,0.414-3.05l3.956-20.332
		c1.463,0,3.547,0.177,5.006,0.495C169.804,129.126,167.58,139.445,165.208,149.458"/>
	<path fill="#433D32" d="M180.725,122.436c-1.957,0-2.909-1.449-2.909-3.052c0-1.59,0.952-3.133,2.958-3.133
		c2.002,0,2.955,1.496,2.955,3.133C183.728,121.022,182.727,122.436,180.725,122.436 M178.18,125.709h5.183v23.748h-5.183V125.709z"
		/>
	<path fill="#433D32" d="M203.471,130.893c-0.542-0.13-1.414-0.224-2.179-0.224c-1.922,0-3.276,0.459-4.784,1.826v16.962h-5.18
		v-23.56c1.448-0.188,3.542-0.317,5.18-0.317v3.039h0.272c2.366-3.086,3.91-3.356,5.418-3.356c0.446,0,1.179,0.082,1.731,0.271
		C203.93,127.3,203.743,129.173,203.471,130.893"/>
	<path fill="#433D32" d="M229.624,120.433c-0.45-0.094-1.723-0.13-2.358-0.13c-1.874,0-2.556,0.907-2.556,2.863v2.544h5.186
		c0,1.508-0.129,3.051-0.357,4.547h-4.828v19.201h-5.183v-19.201h-2.732v-4.547h2.732v-2.132c0-5.006,3.499-7.962,7.646-7.962
		c0.908,0,2.228,0.093,2.769,0.176C229.94,117.347,229.858,118.889,229.624,120.433"/>
	<path fill="#433D32" d="M248.502,149.458v-2.05h-0.268c-2.143,1.78-4.183,2.51-6.504,2.51c-3.64,0-6.867-1.874-6.867-7.328v-16.692
		c1.497-0.234,3.545-0.317,5.184-0.317v16.42c0,2.133,0.953,3.323,3.813,3.323c1.78,0,3.275-0.46,4.641-1.238v-18.188
		c1.499-0.234,3.547-0.317,5.186-0.317v23.877H248.502z M240,123.118c-1.826,0-2.782-1.272-2.782-2.909
		c0-1.591,0.92-2.957,2.829-2.957c1.859,0,2.814,1.319,2.814,2.957C242.862,121.893,241.86,123.118,240,123.118 M248.502,123.118
		c-1.813,0-2.813-1.272-2.813-2.909c0-1.591,0.941-2.957,2.862-2.957c1.816,0,2.769,1.319,2.769,2.957
		C251.32,121.893,250.367,123.118,248.502,123.118"/>
	<path fill="#433D32" d="M275.339,149.458v-16.421c0-1.861-0.589-3.181-3.546-3.181c-1.954,0-3.498,0.542-4.958,1.544v18.058h-5.185
		V115.98c1.46-0.188,3.547-0.365,5.185-0.365v12.321h0.28c2.18-1.956,4.134-2.673,6.552-2.673c4.039,0,6.868,2.179,6.868,7.268
		v16.926H275.339z"/>
	<path fill="#433D32" d="M300.5,130.893c-0.541-0.13-1.413-0.224-2.178-0.224c-1.92,0-3.276,0.459-4.783,1.826v16.962h-5.184v-23.56
		c1.463-0.188,3.547-0.317,5.184-0.317v3.039h0.283c2.355-3.086,3.91-3.356,5.407-3.356c0.458,0,1.177,0.082,1.731,0.271
		C300.96,127.3,300.771,129.173,300.5,130.893"/>
	<path fill="#433D32" d="M323.612,138.999h-13.37v0.316c0,3.864,1.225,5.69,5.724,5.69c2.145,0,4.865-0.636,6.278-1.46
		c0.496,1.366,0.954,3.274,1.19,4.864c-1.968,0.955-5.324,1.509-7.563,1.509c-7.268,0-11.319-4.006-11.319-12.016
		c0-8.552,4.275-12.639,10.142-12.639c6.231,0,9.094,3.91,9.094,10.142C323.789,136.407,323.742,137.902,323.612,138.999
		 M310.278,135.358h8.234c0.045-0.271,0.045-1.001,0.045-1.272c0-3.369-1.319-4.877-3.957-4.877
		C311.88,129.208,310.324,131.035,310.278,135.358"/>
	<path fill="#433D32" d="M343.897,149.458v-16.421c0-2.049-0.813-3.181-3.545-3.181c-1.861,0-3.453,0.495-4.96,1.544v18.058h-5.182
		v-23.56c1.448-0.188,3.545-0.317,5.182-0.317v2.356h0.272c2.367-2.18,4.37-2.673,6.55-2.673c3.685,0,6.878,1.86,6.878,7.315v16.879
		H343.897z"/>
	<path fill="#433D32" d="M395.443,149.458h-6.007l-5.643-19.836c-0.177-0.684-0.459-1.909-0.542-3.133h-0.366
		c-0.094,1.225-0.366,2.45-0.541,3.181l-5.372,19.789h-6.009c-2.402-9.871-4.592-20.379-6.135-30.392
		c1.813-0.317,3.957-0.495,5.452-0.495l3.735,20.203c0.177,1.084,0.317,2.272,0.317,3.18h0.413c0.083-0.907,0.319-2.143,0.588-3.097
		l5.548-20.061h5.184l5.325,20.108c0.222,0.955,0.458,2.143,0.552,3.05h0.401c0.047-0.955,0.234-2.096,0.412-3.05l3.958-20.332
		c1.448,0,3.545,0.177,5.005,0.495C400.037,129.126,397.8,139.445,395.443,149.458"/>
	<path fill="#433D32" d="M410.498,122.436c-1.944,0-2.91-1.449-2.91-3.052c0-1.59,0.966-3.133,2.957-3.133
		c2.003,0,2.955,1.496,2.955,3.133C413.5,121.022,412.501,122.436,410.498,122.436 M407.954,125.709h5.183v23.748h-5.183V125.709z"
		/>
	<path fill="#433D32" d="M426.613,149.918c-2.556,0-5.372-0.602-7.28-1.637c0.366-1.686,0.683-3.099,1.226-4.688
		c1.861,1.001,4.688,1.59,6.961,1.59c2.05,0,2.862-0.907,2.862-2.414c0-3.959-10.778-2.003-10.778-9.873
		c0-5.136,4.453-7.632,9.552-7.632c1.545,0,3.911,0.223,5.737,0.718c-0.047,1.414-0.366,3.145-0.729,4.688
		c-1.637-0.542-4.323-0.907-6.279-0.907c-1.908,0-2.827,0.859-2.827,2.497c0,3.687,10.695,1.779,10.695,10.284
		C435.753,147.679,431.337,149.918,426.613,149.918"/>
	<path fill="#433D32" d="M447.391,149.918c-2.543,0-5.358-0.602-7.268-1.637c0.354-1.686,0.685-3.099,1.227-4.688
		c1.861,1.001,4.688,1.59,6.961,1.59c2.05,0,2.862-0.907,2.862-2.414c0-3.959-10.778-2.003-10.778-9.873
		c0-5.136,4.453-7.632,9.555-7.632c1.542,0,3.909,0.223,5.724,0.718c-0.048,1.414-0.364,3.145-0.729,4.688
		c-1.638-0.542-4.313-0.907-6.268-0.907c-1.921,0-2.827,0.859-2.827,2.497c0,3.687,10.696,1.779,10.696,10.284
		C456.545,147.679,452.127,149.918,447.391,149.918"/>
	<path fill="#433D32" d="M480.151,138.999h-13.37v0.316c0,3.864,1.226,5.69,5.726,5.69c2.143,0,4.863-0.636,6.278-1.46
		c0.506,1.366,0.954,3.274,1.189,4.864c-1.967,0.955-5.325,1.509-7.563,1.509c-7.268,0-11.32-4.006-11.32-12.016
		c0-8.552,4.277-12.639,10.142-12.639c6.231,0,9.095,3.91,9.095,10.142C480.328,136.407,480.292,137.902,480.151,138.999
		 M466.817,135.358h8.232c0.048-0.271,0.048-1.001,0.048-1.272c0-3.369-1.319-4.877-3.958-4.877
		C468.418,129.208,466.863,131.035,466.817,135.358"/>
	<path fill="#433D32" d="M500.436,149.458v-16.421c0-2.049-0.813-3.181-3.545-3.181c-1.861,0-3.451,0.495-4.961,1.544v18.058h-5.182
		v-23.56c1.461-0.188,3.545-0.317,5.182-0.317v2.356h0.284c2.356-2.18,4.358-2.673,6.55-2.673c3.675,0,6.867,1.86,6.867,7.315
		v16.879H500.436z"/>
	<path fill="#433D32" d="M515.185,149.965c-1.732,0-2.958-0.966-2.958-3.004c0-1.956,1.273-3.004,2.958-3.004
		c1.589,0,2.91,1.048,2.91,3.004C518.095,148.999,516.773,149.965,515.185,149.965"/>
	<polygon fill="#DF121A" points="21.379,3.341 21.379,12.176 81.376,20.576 81.376,84.022 90.268,85.258 90.268,12.991 	"/>
	<polygon fill="#DF121A" points="3.805,89.841 72.694,99.5 72.694,27.231 3.805,17.573 	"/>
	<path fill="#433D32" d="M153.102,90.795c-5.679,0-12.452-0.836-17.845-3.157V74.35c1.39-0.188,3.534-0.284,4.826-0.284
		c1.404,0,3.628,0.097,4.926,0.284l0.932,5.854c1.955,0.648,4.84,1.025,7.998,1.025c6.408,0,9.293-2.698,9.293-7.716
		c0-11.426-27.598-10.036-27.598-28.813c0-11.792,9.281-18.387,22.851-18.387c4.829,0,10.506,0.552,14.783,1.672v14.031
		c-1.403,0.187-3.628,0.365-4.925,0.365c-1.398,0-3.814-0.178-5.204-0.365l-0.755-5.764c-1.39-0.188-3.711-0.376-5.665-0.376
		c-6.785,0-9.011,2.885-9.011,7.53c0,9.846,27.599,9.386,27.599,28.625C175.306,83.833,166.566,90.795,153.102,90.795"/>
	<path fill="#433D32" d="M228.585,89.864h-43.208c-0.093-1.296-0.19-3.062-0.19-4.358c0-1.307,0.097-3.075,0.19-4.371l6.327-0.931
		V36.901l-6.327-0.927c-0.093-1.297-0.19-3.064-0.19-4.374c0-1.294,0.097-3.061,0.19-4.357h24.349
		c0.092,1.296,0.189,3.063,0.189,4.357c0,1.309-0.097,3.076-0.189,4.374l-6.409,0.927v43.493h14.396l0.742-5.854
		c1.399-0.189,3.815-0.283,5.207-0.283c1.389,0,3.533,0.094,4.922,0.283V89.864z"/>
	<path fill="#433D32" d="M292.302,35.974l-5.289,0.927v29.922c0,16.821-8.094,23.972-23.419,23.972
		c-16.08,0-23.416-7.15-23.416-23.972V36.901l-5.302-0.927c-0.093-1.297-0.189-3.064-0.189-4.374c0-1.294,0.096-3.061,0.189-4.357
		h21.932c0.19,1.296,0.285,3.063,0.285,4.357c0,1.309-0.095,3.076-0.285,4.374l-5.018,0.927v29.922
		c0,10.035,2.971,13.841,11.994,13.841c9.011,0,12.167-3.806,12.167-13.841V36.901l-5.017-0.927
		c-0.191-1.297-0.272-3.064-0.272-4.374c0-1.294,0.081-3.061,0.272-4.357h21.368c0.188,1.296,0.283,3.063,0.283,4.357
		C292.585,32.909,292.49,34.676,292.302,35.974"/>
	<path fill="#433D32" d="M328.147,90.43c-6.515,0-17.753-0.189-25.279-0.565c-0.094-1.296-0.189-3.062-0.189-4.37
		c0-1.295,0.095-3.063,0.189-4.359l6.314-0.931V36.901l-6.314-0.927c-0.094-1.297-0.189-3.064-0.189-4.374
		c0-1.294,0.095-3.061,0.189-4.357c7.715-0.377,16.35-0.564,24.348-0.564c14.3,0,22.205,4.841,22.205,16.538
		c0,6.42-3.71,11.249-8.552,13.477v0.742c6.597,2.145,10.319,7.337,10.319,14.597C351.189,85.494,341.34,90.43,328.147,90.43
		 M327.864,35.597c-1.956,0-5.018,0.093-7.339,0.187v17.752h8.541c5.206,0,8.552-2.979,8.552-9.2
		C337.619,38.198,334.272,35.597,327.864,35.597 M329.161,62.263h-8.635V81.23c1.767,0.094,5.95,0.188,7.988,0.188
		c7.337,0,10.684-3.076,10.684-9.943C339.197,65.149,335.392,62.263,329.161,62.263"/>
</g>
</svg>
